<svg width="1440" height="681" viewBox="0 0 1440 681" fill="none" xmlns="http://www.w3.org/2000/svg">
<g opacity="0.5" clip-path="url(#clip0_57_2)">
<mask id="mask0_57_2" style="mask-type:alpha" maskUnits="userSpaceOnUse" x="765" y="-15" width="846" height="667">
<path d="M1610.08 -14.5029H765.072V651.364H1610.08V-14.5029Z" fill="url(#paint0_linear_57_2)"/>
</mask>
<g mask="url(#mask0_57_2)">
<g opacity="0.3">
<g opacity="0.3">
<g opacity="0.3">
<path opacity="0.3" d="M873.495 268.301C906.905 265.779 942.836 262.941 982.234 259.789V258.212C906.59 264.518 842.922 269.247 785.559 273.661V274.922C813.295 273.03 842.292 270.823 873.495 268.301Z" fill="#069EFF"/>
</g>
<g opacity="0.3">
<path opacity="0.3" d="M785.559 271.769C784.613 271.769 783.983 273.03 783.983 274.292C783.983 275.553 784.613 276.814 785.559 276.814C786.504 276.814 787.134 275.553 787.134 274.292C787.134 273.03 786.504 271.769 785.559 271.769Z" fill="#069EFF"/>
</g>
<g opacity="0.3">
<path opacity="0.3" d="M981.919 255.69C983.18 255.69 984.125 256.951 984.125 258.527C984.125 260.104 983.18 261.68 981.919 261.68C980.658 261.68 979.713 260.419 979.713 258.843C979.713 257.266 980.658 256.005 981.919 255.69Z" fill="#069EFF"/>
</g>
</g>
<g opacity="0.3">
<g opacity="0.3">
<path opacity="0.3" d="M820.86 272.085L848.911 234.567L1130.06 201.778L1172.92 156.063L1445.24 115.392V113.185L1172.61 154.171L1129.43 199.886L848.596 232.991L820.544 270.824L820.86 272.085Z" fill="#069EFF"/>
</g>
</g>
<g opacity="0.3">
<g opacity="0.3">
<path opacity="0.3" d="M1388.51 55.804L1387.25 56.1192L1306.24 134.308L1307.51 135.884L1387.88 58.0109L1400.17 55.804H1388.51Z" fill="#069EFF"/>
</g>
</g>
<g opacity="0.3">
<g opacity="0.3">
<path opacity="0.3" d="M881.69 559.933C918.882 568.445 959.226 577.904 1002.41 587.993V586.416C919.197 567.5 846.705 550.79 785.243 536.287V537.548C815.186 544.484 847.335 551.736 881.69 559.933Z" fill="#069EFF"/>
</g>
<g opacity="0.3">
<path opacity="0.3" d="M785.559 534.08C784.613 533.765 783.983 535.026 783.983 536.287C783.983 537.548 784.613 539.124 785.559 539.124C786.504 539.44 787.134 538.494 787.134 536.917C786.819 535.656 786.189 534.395 785.559 534.08Z" fill="#069EFF"/>
</g>
<g opacity="0.3">
<path opacity="0.3" d="M1002.41 583.894C1003.67 584.209 1004.61 585.786 1004.61 587.677C1004.61 589.569 1003.67 590.515 1002.41 590.2C1001.15 589.884 1000.2 588.308 1000.2 586.416C1000.2 584.525 1001.15 583.579 1002.41 583.894Z" fill="#069EFF"/>
</g>
</g>
<g opacity="0.3">
<g opacity="0.3">
<path opacity="0.3" d="M1449.65 478.276V475.754C1370.86 468.503 1297.73 462.197 1233.44 456.207C1212.63 435.083 1192.46 415.851 1171.66 395.989C1160.63 385.585 1149.28 374.865 1138.25 364.146L1137.94 363.83H1137.62C1067.96 359.101 1005.56 358.786 951.661 358.471C918.567 358.155 886.418 358.155 856.475 356.894C850.802 362.569 845.759 369.19 840.716 375.18C835.673 381.171 830.63 387.476 825.587 392.836C811.719 391.89 799.112 391.26 785.874 390.629V391.89C799.112 392.521 811.719 393.467 825.587 394.097C830.945 388.737 835.988 382.432 841.031 376.442C846.074 370.451 851.432 363.83 856.79 358.155C886.418 359.417 918.567 359.732 951.661 359.732C1005.87 360.047 1067.96 360.678 1137.31 365.407C1148.02 376.126 1159.37 386.53 1170.4 397.25C1191.2 417.112 1211.69 436.66 1232.49 457.783L1232.81 458.098H1233.12C1297.42 464.404 1370.86 471.025 1449.65 478.276Z" fill="#069EFF"/>
</g>
<g opacity="0.3">
<path opacity="0.3" d="M785.559 389.052C784.613 389.052 783.983 389.998 783.983 391.575C783.983 393.151 784.613 394.097 785.559 394.097C786.504 394.097 787.134 393.151 787.134 391.575C787.134 389.998 786.504 389.052 785.559 389.052Z" fill="#069EFF"/>
</g>
</g>
<g opacity="0.3">
<g opacity="0.3">
<path opacity="0.3" d="M1177.33 467.241L1178.28 465.98L1157.48 444.857L1090.97 439.182L1042.12 387.476L837.879 378.964V380.225L1041.49 389.368L1090.34 441.073L1156.85 446.748L1177.33 467.241Z" fill="#069EFF"/>
</g>
<g opacity="0.3">
<path opacity="0.3" d="M1179.54 463.774C1180.8 465.035 1181.12 467.557 1180.17 469.133C1179.22 470.71 1177.02 470.71 1175.76 469.449C1174.5 468.188 1174.18 465.665 1175.13 464.089C1176.39 462.513 1178.28 462.513 1179.54 463.774Z" fill="#069EFF"/>
</g>
</g>
<g opacity="0.3">
<g opacity="0.3">
<path opacity="0.3" d="M1116.82 509.804L1207.28 522.73L1244.78 494.986L1334.93 505.705V503.498L1244.15 492.779L1206.65 520.524L1117.45 507.912L1078.05 465.035L1022.58 459.044L1004.61 475.754L842.607 455.261V456.522L1004.93 477.33L1023.21 460.936L1077.42 466.926L1116.82 509.804Z" fill="#069EFF"/>
</g>
<g opacity="0.3">
<path opacity="0.3" d="M1334.61 500.346C1336.82 500.661 1338.71 502.553 1338.71 505.075C1338.71 507.282 1336.82 509.174 1334.61 508.858C1332.41 508.543 1330.51 506.651 1330.51 504.129C1330.51 501.607 1332.41 500.031 1334.61 500.346Z" fill="#069EFF"/>
</g>
</g>
<g opacity="0.3">
<g opacity="0.3">
<path opacity="0.3" d="M879.483 428.461C899.34 430.353 920.457 431.929 942.52 432.245C944.727 430.353 946.618 428.146 948.194 425.939C952.291 421.21 955.758 416.481 961.116 418.057C966.79 418.372 972.463 418.688 977.821 419.003C986.646 419.318 995.156 419.634 1004.3 420.895V419.318C995.156 418.057 986.646 417.742 977.821 417.427C972.463 417.111 966.79 417.111 961.432 416.796C955.758 415.22 951.661 419.949 947.563 425.308C945.672 427.515 944.096 429.722 941.89 431.299C905.644 430.668 871.604 427.2 841.031 423.732C821.804 421.525 802.893 419.633 784.928 418.372V419.634C802.893 420.895 821.804 422.786 841.031 424.993C853.638 425.939 866.246 427.2 879.483 428.461Z" fill="#069EFF"/>
</g>
<g opacity="0.3">
<path opacity="0.3" d="M785.559 415.851C784.613 415.851 783.983 416.797 783.983 418.373C783.983 419.634 784.613 420.896 785.559 420.896C786.504 420.896 787.134 419.95 787.134 418.373C786.819 417.112 786.189 416.166 785.559 415.851Z" fill="#069EFF"/>
</g>
<g opacity="0.3">
<path opacity="0.3" d="M1004.61 416.167C1005.87 416.167 1006.82 417.743 1006.82 419.635C1006.82 421.526 1005.56 422.787 1004.3 422.472C1003.04 422.472 1002.09 420.896 1002.09 419.004C1002.41 417.428 1003.35 416.167 1004.61 416.167Z" fill="#069EFF"/>
</g>
</g>
<g opacity="0.3">
<g opacity="0.3">
<path opacity="0.3" d="M804.155 357.525C808.882 349.958 814.241 343.338 819.914 336.717C821.49 334.825 823.066 332.933 824.642 331.042C874.126 330.411 928.338 329.781 990.744 329.15V327.889C928.338 328.519 874.126 329.465 824.642 329.781C823.066 331.672 821.49 333.564 819.914 335.456C814.556 342.076 809.197 348.382 804.47 355.949C798.481 355.949 791.862 355.633 785.874 355.318V356.579C791.547 357.525 798.166 357.525 804.155 357.525Z" fill="#069EFF"/>
</g>
<g opacity="0.3">
<path opacity="0.3" d="M785.559 353.741C784.613 353.741 783.983 354.687 783.983 356.264C783.983 357.525 784.613 358.786 785.559 358.786C786.504 358.786 787.134 357.84 787.134 356.264C787.134 355.003 786.504 353.741 785.559 353.741Z" fill="#069EFF"/>
</g>
<g opacity="0.3">
<path opacity="0.3" d="M990.429 325.366C991.69 325.366 992.635 326.628 992.635 328.519C992.635 330.411 991.69 331.672 990.429 331.672C989.168 331.672 988.223 330.411 988.223 328.519C988.223 326.943 989.168 325.682 990.429 325.366Z" fill="#069EFF"/>
</g>
</g>
<g opacity="0.3">
<g opacity="0.3">
<path opacity="0.3" d="M1187.42 356.894L1443.98 360.362V357.84L1188.05 355.002L1119.34 292.577L824.011 304.558L798.166 273.03L797.536 273.976L823.696 306.134L1118.71 294.469L1187.42 356.894Z" fill="#069EFF"/>
</g>
<g opacity="0.3">
<path opacity="0.3" d="M1443.67 354.687C1446.19 354.687 1448.39 356.894 1448.39 359.101C1448.39 361.623 1446.19 363.515 1443.67 363.515C1441.14 363.515 1438.94 361.308 1438.94 359.101C1438.94 356.579 1441.14 354.687 1443.67 354.687Z" fill="#069EFF"/>
</g>
</g>
<g opacity="0.3">
<g opacity="0.3">
<path opacity="0.3" d="M1334.93 278.075L1565.96 267.671V265.149L1335.56 275.868L1274.41 229.837L1048.11 248.439L1010.6 213.758L1009.97 215.335L1047.79 250.331L1273.78 232.044L1334.93 278.075Z" fill="#069EFF"/>
</g>
</g>
<g opacity="0.3">
<g opacity="0.3">
<path opacity="0.3" d="M1349.43 205.246L1518.36 188.851V186.329L1350.37 202.724L1293.32 163.314L1146.13 182.546V184.438L1292.69 165.521L1349.43 205.246Z" fill="#069EFF"/>
</g>
</g>
<g opacity="0.3">
<g opacity="0.3">
<path opacity="0.3" d="M1304.67 419.635L1428.22 426.886V424.364L1305.61 417.428L1235.33 356.264L1234.38 357.84L1304.67 419.635Z" fill="#069EFF"/>
</g>
<g opacity="0.3">
<path opacity="0.3" d="M1427.91 421.211C1430.43 421.211 1432.63 423.418 1432.63 425.94C1432.63 428.462 1430.43 430.354 1427.91 430.039C1425.38 430.039 1423.49 427.832 1423.49 425.309C1423.49 422.787 1425.38 420.896 1427.91 421.211Z" fill="#069EFF"/>
</g>
</g>
<g opacity="0.3">
<g opacity="0.3">
<path opacity="0.3" d="M787.45 509.804C825.587 517.371 864.985 525.253 909.427 533.45V531.874C864.67 523.676 825.587 515.794 787.45 508.543C787.135 508.543 786.189 507.912 785.244 506.651L784.928 507.597C785.874 508.543 786.82 509.489 787.45 509.804Z" fill="#069EFF"/>
</g>
<g opacity="0.3">
<path opacity="0.3" d="M786.189 505.075C785.559 504.129 784.613 504.129 783.983 505.075C783.352 506.02 783.668 507.597 784.298 508.543C784.928 509.489 785.874 509.489 786.504 508.543C786.819 507.912 786.819 506.336 786.189 505.075Z" fill="#069EFF"/>
</g>
<g opacity="0.3">
<path opacity="0.3" d="M909.427 529.666C910.372 529.981 911.318 531.242 911.318 532.819C911.318 534.395 910.372 535.656 909.427 535.341C908.481 535.026 907.535 533.765 907.535 532.188C907.22 530.612 908.166 529.351 909.427 529.666Z" fill="#069EFF"/>
</g>
</g>
<g opacity="0.3">
<g opacity="0.3">
<path opacity="0.3" d="M783.983 466.296C806.991 469.449 830.315 472.917 855.845 477.015V475.439C830.63 471.34 806.991 467.872 783.983 465.035V466.296Z" fill="#069EFF"/>
</g>
<g opacity="0.3">
<path opacity="0.3" d="M855.845 479.222C856.791 479.222 857.736 478.276 857.736 476.7C857.736 475.124 857.106 473.862 855.845 473.547C854.9 473.547 854.269 474.493 854.269 476.069C853.954 477.646 854.9 478.907 855.845 479.222Z" fill="#069EFF"/>
</g>
</g>
<g opacity="0.3">
<g opacity="0.3">
<path opacity="0.3" d="M1230.28 323.475L1368.65 321.583V319.376L1230.6 321.268L1136.99 241.502L1136.04 243.079L1230.28 323.475Z" fill="#069EFF"/>
</g>
<g opacity="0.3">
<path opacity="0.3" d="M1368.65 316.223C1370.86 316.223 1372.75 318.115 1372.75 320.322C1372.75 322.844 1370.86 324.736 1368.65 324.736C1366.44 324.736 1364.55 322.844 1364.55 320.637C1364.24 318.115 1366.13 316.223 1368.65 316.223Z" fill="#069EFF"/>
</g>
</g>
</g>
<path d="M1009.02 431.615V430.038C954.498 425.309 904.383 421.211 860.257 417.427C856.79 412.698 853.639 407.338 850.802 402.294C846.705 395.358 843.237 388.737 838.51 384.323C822.75 385.9 808.252 384.638 793.123 383.377C790.602 383.062 788.08 383.062 785.559 382.747V384.008C788.08 384.323 790.602 384.323 793.123 384.638C807.937 385.9 822.435 387.161 838.51 385.9C842.922 390.313 846.704 396.619 850.487 403.555C853.323 408.915 856.475 414.275 860.257 419.004V419.319H860.573C904.383 422.472 954.498 426.886 1009.02 431.615Z" fill="#069EFF"/>
<path d="M785.559 380.54C784.613 380.54 783.983 381.486 783.983 383.062C783.983 384.323 784.613 385.585 785.559 385.585C786.504 385.585 787.134 384.639 787.134 383.062C787.134 381.801 786.504 380.54 785.559 380.54Z" fill="#069EFF"/>
<path d="M1009.03 427.516C1010.29 427.516 1011.55 429.092 1011.55 430.984C1011.55 432.876 1010.6 434.137 1009.03 434.137C1007.76 434.137 1006.82 432.561 1006.82 430.669C1006.5 428.777 1007.76 427.516 1009.03 427.516Z" fill="#069EFF"/>
<path d="M1118.08 504.444L1248.57 522.73V520.523L1118.71 502.868L1095.7 471.025L924.24 451.793L905.329 421.526L904.383 422.472L923.925 453.369L1095.07 472.916L1118.08 504.444Z" fill="#069EFF"/>
<path d="M1248.25 517.686C1250.14 518.001 1251.72 519.893 1251.72 522.1C1251.72 524.307 1250.14 525.883 1248.25 525.568C1246.36 525.253 1244.78 523.361 1244.78 521.154C1244.78 518.947 1246.36 517.371 1248.25 517.686Z" fill="#069EFF"/>
<path d="M1223.67 563.086L1399.54 593.353V591.146L1224.61 561.194L1186.79 512.326L1185.53 513.587L1223.67 563.086Z" fill="#069EFF"/>
<path d="M1399.22 587.993C1401.75 588.308 1403.64 590.831 1403.64 593.037C1403.64 595.56 1401.75 597.136 1399.22 596.505C1396.7 596.19 1394.81 593.668 1394.81 591.461C1394.81 589.254 1397.02 587.678 1399.22 587.993Z" fill="#069EFF"/>
<path d="M846.389 234.251L846.705 233.936C852.063 224.793 857.736 215.335 863.094 204.3C911.633 197.049 962.377 189.797 1021.32 180.339V178.762C962.377 188.221 911.633 195.787 862.779 203.039H862.464V203.354C856.79 214.389 851.432 223.847 846.074 232.99C824.326 235.512 804.785 237.719 785.243 239.611V240.872C805.1 239.296 824.642 236.774 846.389 234.251Z" fill="#069EFF"/>
<path d="M785.559 237.719C784.613 237.719 783.983 238.98 783.983 240.557C783.983 241.818 784.613 243.079 785.559 243.079C786.504 243.079 787.134 241.818 787.134 240.241C787.134 238.665 786.189 237.719 785.559 237.719Z" fill="#069EFF"/>
<path d="M1021.32 176.555C1022.58 176.24 1023.84 177.501 1023.84 179.393C1023.84 181.285 1022.89 182.861 1021.32 182.861C1020.06 183.176 1018.8 181.915 1018.8 180.023C1018.8 178.132 1020.06 176.555 1021.32 176.555Z" fill="#069EFF"/>
<path d="M929.283 352.165L1098.54 354.057L1098.85 353.741C1107.68 345.544 1115.24 334.825 1122.81 324.736C1132.26 312.125 1142.03 298.883 1154.01 289.109C1183.95 287.848 1216.42 286.587 1250.46 285.641V283.434C1216.42 284.38 1183.64 285.641 1153.69 286.902H1153.38L1153.06 287.218C1140.77 297.307 1130.69 310.863 1121.23 323.475C1113.67 333.563 1106.1 343.968 1097.59 352.165L929.283 350.589C925.816 347.12 922.979 342.391 920.143 337.977C914.784 329.78 909.426 320.952 901.862 321.268C876.332 320.952 851.432 321.583 828.739 322.213C813.925 322.529 799.427 323.159 785.243 323.159V324.42C799.112 324.42 813.925 324.105 828.739 323.475C851.432 322.844 876.332 322.214 901.862 322.529C908.796 322.529 913.839 330.411 919.197 338.923C922.349 343.652 925.501 348.697 929.283 352.165Z" fill="#069EFF"/>
<path d="M785.559 321.268C784.613 321.268 783.983 322.529 783.983 323.79C783.983 325.051 784.613 326.312 785.559 326.312C786.504 326.312 787.134 325.051 787.134 323.79C787.134 322.213 786.504 321.268 785.559 321.268Z" fill="#069EFF"/>
<path d="M1250.14 280.912C1252.03 280.912 1253.61 282.489 1253.61 284.695C1253.61 286.902 1252.03 288.794 1250.14 288.794C1248.25 288.794 1246.67 287.218 1246.67 285.011C1246.67 282.804 1248.25 280.912 1250.14 280.912Z" fill="#069EFF"/>
<path d="M916.676 334.194L1045.9 333.564L1073.95 296.676L1110.51 295.1L1121.23 281.543L1119.97 280.282L1109.88 293.208L1073.32 294.784L1045.59 331.672L916.676 332.618V334.194Z" fill="#069EFF"/>
<path d="M1118.39 278.706C1119.66 277.129 1121.23 277.129 1122.49 278.39C1123.75 279.652 1123.75 281.858 1122.49 283.435C1121.23 285.011 1119.66 285.011 1118.39 283.75C1117.45 282.489 1117.45 280.282 1118.39 278.706Z" fill="#069EFF"/>
<path d="M1034.24 278.705L1066.7 276.814L1088.77 247.177L1136.04 243.394L1155.27 265.148L1198.45 262.311V260.419L1155.9 262.941L1136.68 241.502L1088.14 245.286L1066.07 274.922L1034.87 276.814L1024.15 263.257L919.828 270.823V272.4L1023.52 265.148L1034.24 278.705Z" fill="#069EFF"/>
<path d="M1198.14 257.582C1200.03 257.582 1201.29 259.158 1201.29 261.05C1201.29 263.257 1199.71 264.833 1198.14 265.148C1196.25 265.148 1194.98 263.572 1194.98 261.68C1194.98 259.473 1196.56 257.582 1198.14 257.582Z" fill="#069EFF"/>
<path d="M1005.87 309.603C1008.71 309.603 1011.55 309.287 1014.38 308.972C1017.22 308.657 1020.06 308.657 1022.89 308.341V306.765C1020.06 306.765 1017.22 307.08 1014.38 307.396C1008.08 308.026 1002.41 308.341 996.102 307.396C993.896 306.765 992.635 303.928 991.059 301.09C989.484 298.253 987.908 295.1 985.386 294.469C938.739 295.73 895.558 297.622 857.106 299.514C832.521 300.775 808.567 302.036 785.874 302.666V303.928C808.252 303.297 832.521 302.036 857.106 300.775C895.558 298.883 938.739 296.991 985.386 295.73C987.592 296.361 988.853 299.198 990.429 301.721C992.005 304.558 993.581 307.711 996.418 308.657C999.254 309.603 1002.41 309.918 1005.87 309.603Z" fill="#069EFF"/>
<path d="M785.559 301.09C784.613 301.09 783.983 302.351 783.983 303.613C783.983 304.874 784.613 306.135 785.559 306.135C786.504 306.135 787.134 304.874 787.134 303.613C786.819 302.036 786.189 301.09 785.559 301.09Z" fill="#069EFF"/>
<path d="M1022.58 304.558C1023.84 304.558 1025.1 305.819 1025.1 307.711C1025.1 309.603 1024.15 310.864 1022.58 311.179C1021.32 311.179 1020.06 309.918 1020.06 308.026C1020.06 306.134 1021.32 304.558 1022.58 304.558Z" fill="#069EFF"/>
<path d="M992.005 377.387C999.254 377.702 1006.82 377.702 1014.07 378.018V376.441C991.69 376.126 969.627 375.18 948.825 373.919C935.272 373.288 922.034 372.658 909.111 372.027C904.699 372.027 901.862 365.722 899.025 359.416C898.08 357.525 897.134 355.633 896.189 353.741C895.243 352.165 893.982 350.273 892.722 350.273C854.584 349.958 818.338 349.643 784.928 349.643V350.904C818.023 350.588 854.584 351.219 892.722 351.534C893.667 351.534 894.613 353.111 895.243 354.372C896.189 355.948 897.134 358.155 897.765 360.047C900.601 366.352 903.753 373.288 908.796 373.288C921.404 373.604 934.957 374.55 948.51 375.18C962.693 376.126 977.507 376.757 992.005 377.387Z" fill="#069EFF"/>
<path d="M785.559 348.066C784.613 348.066 783.983 349.328 783.983 350.589C783.983 351.85 784.613 353.111 785.559 353.111C786.504 353.111 787.134 351.85 787.134 350.589C786.819 349.012 786.189 348.066 785.559 348.066Z" fill="#069EFF"/>
<path d="M1014.07 373.919C1015.33 373.919 1016.59 375.495 1016.59 377.072C1016.59 378.963 1015.64 380.224 1014.07 380.224C1012.81 380.224 1011.55 378.648 1011.55 377.072C1011.86 375.18 1012.81 373.919 1014.07 373.919Z" fill="#069EFF"/>
<path d="M889.255 420.896L907.22 395.043L1089.71 405.132L1126.9 360.678L1247.94 362.569V360.678L1126.27 358.786L1089.08 403.24L906.905 393.467L888.309 419.95L889.255 420.896Z" fill="#069EFF"/>
<path d="M1247.62 357.84C1249.51 357.84 1251.09 359.732 1251.09 361.939C1251.09 364.146 1249.51 365.722 1247.62 365.722C1245.73 365.722 1244.15 363.831 1244.15 361.624C1244.15 359.417 1245.73 357.84 1247.62 357.84Z" fill="#069EFF"/>
<path d="M1027.62 465.035L1049.68 438.236L1170.71 448.956L1200.34 416.797L1299.31 422.788V420.581L1199.4 414.59L1170.08 446.749L1049.05 436.344L1026.68 463.774L1027.62 465.035Z" fill="#069EFF"/>
<path d="M1299 417.428C1301.2 417.428 1302.78 419.319 1302.78 421.842C1302.78 424.049 1301.2 425.94 1299 425.625C1296.79 425.625 1295.21 423.418 1295.21 421.211C1295.21 419.004 1297.1 417.428 1299 417.428Z" fill="#069EFF"/>
<path d="M1104.21 484.897L1179.86 494.355L1206.96 465.98L1279.77 473.232V471.025L1206.33 463.773L1179.23 492.148L1104.21 483.005V484.897Z" fill="#069EFF"/>
<path d="M1279.77 468.187C1281.98 468.503 1283.55 470.394 1283.55 472.601C1283.55 474.808 1281.98 476.385 1279.77 476.385C1277.88 476.069 1275.99 474.178 1275.99 471.971C1275.99 469.764 1277.56 467.872 1279.77 468.187Z" fill="#069EFF"/>
<path d="M1151.17 360.362L1185.84 319.692L1241 318.746V316.539L1185.21 317.8L1150.23 359.101L1151.17 360.362Z" fill="#069EFF"/>
<path d="M1241 313.701C1242.89 313.701 1244.47 315.278 1244.47 317.485C1244.47 319.692 1242.89 321.268 1241 321.583C1239.11 321.583 1237.53 320.007 1237.53 317.8C1237.22 315.593 1238.79 314.017 1241 313.701Z" fill="#069EFF"/>
<path d="M785.244 256.321C810.143 253.799 837.249 250.961 864.67 248.124C867.507 245.286 869.713 241.188 872.235 237.089C875.387 231.414 878.539 226.054 882.636 223.847C898.71 224.793 914.785 221.956 932.12 219.118C941.891 217.542 952.292 215.65 963.008 214.704V213.128C952.292 214.074 941.891 215.965 932.12 217.542C914.785 220.379 898.71 223.217 882.636 222.271C877.908 224.478 874.756 230.468 871.604 236.143C869.398 239.927 867.192 244.025 864.355 246.863C836.619 249.7 809.828 252.538 784.928 255.06L785.244 256.321Z" fill="#069EFF"/>
<path d="M785.559 253.168C784.613 253.168 783.983 254.429 783.983 256.006C783.983 257.267 784.613 258.528 785.559 258.528C786.504 258.528 787.134 257.267 787.134 255.69C786.819 254.114 786.189 253.168 785.559 253.168Z" fill="#069EFF"/>
<path d="M963.323 211.236C964.584 211.236 965.529 212.182 965.529 214.074C965.529 215.65 964.584 217.226 963.323 217.542C962.062 217.542 961.116 216.596 961.116 214.704C961.116 212.812 962.062 211.551 963.323 211.236Z" fill="#069EFF"/>
<path d="M784.298 268.616C827.163 264.833 875.386 260.734 928.338 256.32V254.744C875.702 259.158 827.478 263.256 784.298 267.355V268.616Z" fill="#069EFF"/>
<path d="M928.022 258.527C929.283 258.527 929.913 256.951 929.913 255.375C929.913 253.798 928.968 252.537 928.022 252.537C926.761 252.537 926.131 254.114 926.131 255.69C926.131 257.266 926.761 258.843 928.022 258.527Z" fill="#069EFF"/>
<path d="M1099.48 442.018L1148.65 384.953L1214.21 387.475V385.268L1148.02 383.062L1098.54 440.757L1099.48 442.018Z" fill="#069EFF"/>
<path d="M1213.9 382.432C1215.79 382.432 1217.36 384.324 1217.36 386.215C1217.36 388.422 1215.79 389.999 1213.9 389.999C1212 389.999 1210.43 388.107 1210.43 386.215C1210.74 384.008 1212 382.432 1213.9 382.432Z" fill="#069EFF"/>
<g opacity="0.3">
<g opacity="0.3">
<g opacity="0.3">
<path opacity="0.3" d="M818.653 438.866C830.315 440.127 841.977 441.388 854.584 442.649V441.073C830 438.551 807.622 436.344 785.874 433.506V434.767C796.275 436.344 807.306 437.605 818.653 438.866Z" fill="#069EFF"/>
</g>
<g opacity="0.3">
<path opacity="0.3" d="M785.559 431.93C784.613 431.93 783.983 432.876 783.983 434.452C783.983 435.713 784.613 436.974 785.559 437.29C786.504 437.29 787.134 436.344 787.134 434.767C787.134 433.191 786.504 431.93 785.559 431.93Z" fill="#069EFF"/>
</g>
<g opacity="0.3">
<path opacity="0.3" d="M854.269 439.181C855.214 439.181 855.845 440.442 855.845 442.019C855.845 443.595 855.214 444.541 854.269 444.541C853.323 444.541 852.693 443.28 852.693 441.704C852.693 440.127 853.323 439.181 854.269 439.181Z" fill="#069EFF"/>
</g>
</g>
<g opacity="0.3">
<g opacity="0.3">
<path opacity="0.3" d="M1036.45 553.942C1116.82 569.706 1204.12 586.416 1309.08 606.279V604.072C1204.12 584.209 1116.82 567.499 1036.76 552.051C1029.2 541.331 1020.69 531.873 1012.49 523.045C1006.82 516.424 1001.15 510.434 996.102 504.129L995.787 503.813H995.472C915.415 491.517 844.183 480.483 783.667 471.024V472.286C844.183 481.744 915.1 492.779 995.472 505.39C1000.51 511.695 1005.87 517.686 1011.55 524.306C1020.06 533.765 1028.57 543.223 1036.45 553.942Z" fill="#069EFF"/>
</g>
<g opacity="0.3">
<path opacity="0.3" d="M1309.08 601.235C1311.29 601.55 1312.86 603.757 1312.86 605.964C1312.86 608.171 1310.97 609.747 1309.08 609.432C1306.88 609.117 1305.3 606.91 1305.3 604.703C1304.98 602.496 1306.88 600.919 1309.08 601.235Z" fill="#069EFF"/>
</g>
</g>
<g opacity="0.3">
<g opacity="0.3">
<path opacity="0.3" d="M1222.41 632.762L1169.45 577.588L1168.51 578.849L1220.2 632.762H1222.41Z" fill="#069EFF"/>
</g>
</g>
<g opacity="0.3">
<g opacity="0.3">
<path opacity="0.3" d="M827.478 123.588C842.607 119.805 858.051 116.022 873.811 112.238V110.662C842.607 118.544 812.98 125.795 785.559 132.416V133.677C798.796 130.525 812.98 127.057 827.478 123.588Z" fill="#069EFF"/>
</g>
<g opacity="0.3">
<path opacity="0.3" d="M785.559 130.524C784.613 130.84 783.983 132.101 783.983 133.362C783.983 134.623 784.613 135.884 785.559 135.569C786.504 135.253 787.134 133.992 787.134 132.731C786.819 131.155 786.189 130.209 785.559 130.524Z" fill="#069EFF"/>
</g>
<g opacity="0.3">
<path opacity="0.3" d="M873.495 108.455C874.441 108.14 875.386 109.401 875.386 110.662C875.386 112.238 874.441 113.499 873.495 113.815C872.55 114.13 871.604 112.869 871.604 111.608C871.919 110.347 872.55 108.77 873.495 108.455Z" fill="#069EFF"/>
</g>
</g>
<g opacity="0.3">
<g opacity="0.3">
<path opacity="0.3" d="M997.048 341.13C998.939 341.13 1000.2 340.184 1001.78 338.923C1002.41 338.607 1002.72 337.977 1003.67 337.661C1013.75 328.203 1023.21 318.745 1032.35 309.602C1041.8 300.143 1051.57 290.37 1062.61 280.281C1065.76 276.813 1068.59 273.66 1071.75 270.507C1077.1 264.832 1082.15 259.473 1086.88 253.167C1089.71 249.384 1093.81 245.6 1096.65 245.285C1137.62 240.556 1182.06 237.403 1228.39 233.935C1255.18 232.044 1283.87 229.837 1313.49 227.314V225.107C1283.87 227.63 1255.18 229.837 1228.39 232.044C1182.06 235.512 1137.31 238.98 1096.65 243.709C1093.49 244.024 1088.77 248.438 1085.93 252.221C1081.52 258.212 1076.16 263.571 1071.12 269.246C1068.28 272.399 1065.13 275.552 1061.98 279.02C1050.94 289.424 1041.17 299.198 1031.72 308.341C1022.58 317.484 1013.12 326.942 1003.04 336.085C1002.41 336.4 1001.78 337.031 1001.46 337.346C999.885 338.607 998.939 339.238 997.363 339.238C945.988 337.346 898.08 337.977 855.845 338.292C831.576 338.607 807.622 338.923 785.559 338.607V339.868C807.622 340.184 831.576 339.868 855.845 339.553C897.765 339.553 945.673 339.238 997.048 341.13Z" fill="#069EFF"/>
</g>
<g opacity="0.3">
<path opacity="0.3" d="M785.559 337.031C784.613 337.031 783.983 338.292 783.983 339.553C783.983 340.814 784.613 342.075 785.559 342.075C786.504 342.075 787.134 340.814 787.134 339.553C787.134 338.292 786.504 337.031 785.559 337.031Z" fill="#069EFF"/>
</g>
<g opacity="0.3">
<path opacity="0.3" d="M1313.49 222.27C1315.7 221.955 1317.28 223.846 1317.28 226.053C1317.28 228.26 1315.38 230.152 1313.49 230.467C1311.29 230.783 1309.71 228.891 1309.71 226.684C1309.4 224.477 1311.29 222.27 1313.49 222.27Z" fill="#069EFF"/>
</g>
</g>
<g opacity="0.3">
<g opacity="0.3">
<path opacity="0.3" d="M910.372 313.386C920.773 302.981 930.544 291.947 940.315 280.912C945.988 274.606 951.661 267.986 957.335 261.995C963.638 261.365 970.257 261.05 976.876 260.734C990.114 260.104 1004.3 259.473 1018.8 257.266C1025.41 255.69 1030.46 249.384 1035.5 243.394C1038.02 240.556 1040.54 237.404 1043.06 234.881L1042.43 233.62C1039.6 236.143 1037.08 239.295 1034.87 242.448C1030.14 248.438 1025.1 254.429 1019.11 256.005C1004.93 258.212 990.744 258.843 977.506 259.788C970.888 260.104 964.269 260.419 957.65 261.05H957.335V261.365C951.661 267.67 945.673 274.291 939.999 280.597C930.229 291.631 920.458 302.666 910.687 312.755C863.725 314.016 823.066 315.277 784.613 316.223V317.484C822.75 315.908 863.094 314.647 910.372 313.386Z" fill="#069EFF"/>
</g>
<g opacity="0.3">
<path opacity="0.3" d="M1040.86 231.413C1042.12 230.467 1043.69 230.783 1044.33 232.044C1044.96 233.62 1044.64 235.512 1043.38 236.773C1042.12 237.719 1040.54 237.404 1039.91 236.142C1039.28 234.566 1039.6 232.359 1040.86 231.413Z" fill="#069EFF"/>
</g>
</g>
<g opacity="0.3">
<g opacity="0.3">
<path opacity="0.3" d="M892.722 241.187L942.521 235.828C952.922 227.946 962.062 216.28 971.833 203.984C973.409 201.777 975.3 199.571 976.876 197.364C977.822 196.733 978.452 195.787 979.397 195.157C980.973 193.58 982.549 192.004 983.81 191.689L1069.23 179.393C1073.64 182.861 1078.05 186.014 1082.46 188.851C1090.03 193.896 1097.28 198.625 1103.58 205.876L1103.9 206.191H1104.21C1121.86 207.453 1140.46 204.93 1158.74 202.093C1171.35 200.201 1184.58 198.309 1198.14 197.679V195.787C1184.58 196.418 1171.35 198.309 1158.74 200.201C1140.46 202.723 1122.18 205.561 1104.84 204.3C1098.54 197.048 1090.97 192.004 1083.72 187.275C1079.31 184.437 1074.58 181.284 1070.49 177.816H1070.17L984.44 190.112C982.549 190.428 980.973 192.319 979.397 193.896C978.767 194.841 977.822 195.472 977.191 196.103C975.3 198.309 973.724 200.516 972.148 202.723C962.693 215.019 953.552 226.369 943.466 234.251L893.352 239.611C890.515 235.512 886.733 232.675 883.266 229.837C880.745 227.946 878.538 226.054 876.647 223.847C856.791 223.847 836.934 226.684 818.653 229.522C806.991 231.414 795.329 232.99 784.298 233.936V235.197C795.329 234.251 806.991 232.675 818.653 230.783C836.934 227.946 856.475 225.108 876.332 225.108C878.223 227.315 880.429 229.207 882.951 231.098C886.103 233.621 889.885 236.773 892.722 241.187Z" fill="#069EFF"/>
</g>
<g opacity="0.3">
<path opacity="0.3" d="M1197.82 192.95C1199.71 192.95 1200.97 194.526 1200.97 196.418C1200.97 198.625 1199.4 200.201 1197.51 200.516C1195.61 200.516 1194.35 198.94 1194.35 197.048C1194.67 194.841 1195.93 192.95 1197.82 192.95Z" fill="#069EFF"/>
</g>
</g>
<g opacity="0.3">
<g opacity="0.3">
<path opacity="0.3" d="M830.314 284.38C844.812 283.434 859.941 282.488 875.701 281.227V279.651C860.256 280.912 844.812 282.173 830.629 282.804C826.217 276.183 821.174 270.823 816.131 265.779C806.045 266.724 795.644 267.67 785.558 267.985V269.247C795.644 268.616 805.729 267.985 815.815 267.04C820.858 272.399 825.901 277.444 830.314 284.38Z" fill="#069EFF"/>
</g>
<g opacity="0.3">
<path opacity="0.3" d="M785.559 266.095C784.613 266.095 783.983 267.356 783.983 268.617C783.983 269.878 784.613 271.139 785.559 271.139C786.504 271.139 787.134 269.878 787.134 268.617C787.134 267.356 786.189 266.095 785.559 266.095Z" fill="#069EFF"/>
</g>
<g opacity="0.3">
<path opacity="0.3" d="M875.702 277.759C876.647 277.759 877.593 279.02 877.593 280.282C877.593 281.858 876.647 283.119 875.702 283.119C874.756 283.119 873.811 281.858 873.811 280.597C873.811 279.02 874.756 277.759 875.702 277.759Z" fill="#069EFF"/>
</g>
</g>
<g opacity="0.3">
<g opacity="0.3">
<path opacity="0.3" d="M785.559 369.82C809.513 370.136 835.358 371.081 862.464 372.342V370.766C835.358 369.505 809.513 368.559 785.559 368.244V369.82Z" fill="#069EFF"/>
</g>
<g opacity="0.3">
<path opacity="0.3" d="M785.559 366.667C784.613 366.667 783.983 367.613 783.983 369.19C783.983 370.451 784.613 371.712 785.559 371.712C786.504 371.712 787.134 370.766 787.134 369.19C787.134 367.929 786.504 366.667 785.559 366.667Z" fill="#069EFF"/>
</g>
<g opacity="0.3">
<path opacity="0.3" d="M862.464 369.19C863.409 369.19 864.355 370.451 864.355 372.027C864.355 373.604 863.409 374.865 862.464 374.865C861.518 374.865 860.573 373.604 860.573 372.027C860.573 370.135 861.518 368.874 862.464 369.19Z" fill="#069EFF"/>
</g>
</g>
<g opacity="0.3">
<g opacity="0.3">
<path opacity="0.3" d="M784.298 397.565C841.977 401.348 907.22 405.762 983.81 411.121C993.266 404.816 1001.46 396.619 1010.29 387.791C1014.07 384.008 1018.17 379.909 1022.58 375.81C1031.72 368.559 1040.54 360.677 1052.84 348.697C1125.33 349.327 1211.06 349.642 1307.51 350.904V348.697C1210.74 347.435 1125.01 347.12 1052.52 346.805H1052.21L1051.89 347.12C1039.6 359.101 1030.77 366.983 1021.63 374.549C1017.22 378.648 1013.44 382.747 1009.34 386.53C1000.51 395.358 992.32 403.555 983.18 409.86C906.59 404.816 841.346 400.717 783.667 396.934V397.565H784.298Z" fill="#069EFF"/>
</g>
<g opacity="0.3">
<path opacity="0.3" d="M1307.51 345.544C1309.71 345.544 1311.29 347.436 1311.29 349.643C1311.29 351.85 1309.4 353.741 1307.51 353.741C1305.3 353.741 1303.72 351.85 1303.72 349.643C1303.72 347.436 1305.61 345.544 1307.51 345.544Z" fill="#069EFF"/>
</g>
</g>
<g opacity="0.3">
<g opacity="0.3">
<path opacity="0.3" d="M880.745 488.049L916.676 453.999L1136.99 479.537L1197.82 433.506L1432.95 450.847V448.324L1197.19 431.299L1136.36 477.645L916.361 452.423L880.429 486.788L880.745 488.049Z" fill="#069EFF"/>
</g>
<g opacity="0.3">
<path opacity="0.3" d="M1432.95 445.172C1435.47 445.487 1437.68 447.379 1437.68 449.901C1437.68 452.423 1435.47 454.315 1432.95 453.999C1430.43 453.684 1428.22 451.792 1428.22 449.27C1428.22 446.748 1430.43 444.856 1432.95 445.172Z" fill="#069EFF"/>
</g>
</g>
<g opacity="0.3">
<g opacity="0.3">
<path opacity="0.3" d="M1010.92 523.991L1155.59 548.583L1212.32 509.488L1384.1 532.504V529.981L1211.69 507.597L1154.96 546.691L1010.92 522.099V523.991Z" fill="#069EFF"/>
</g>
<g opacity="0.3">
<path opacity="0.3" d="M1383.78 526.829C1386.3 527.144 1388.19 529.351 1388.19 531.558C1388.19 533.765 1386.3 535.657 1383.78 535.341C1381.26 535.026 1379.37 532.819 1379.37 530.612C1379.68 528.09 1381.57 526.514 1383.78 526.829Z" fill="#069EFF"/>
</g>
</g>
<g opacity="0.3">
<g opacity="0.3">
<path opacity="0.3" d="M1098.22 348.381L1167.56 286.587L1291.75 280.912V278.705L1167.25 284.695L1097.28 347.12L1098.22 348.381Z" fill="#069EFF"/>
</g>
<g opacity="0.3">
<path opacity="0.3" d="M1291.75 275.867C1293.95 275.867 1295.53 277.444 1295.53 279.651C1295.53 281.858 1293.95 283.749 1291.75 283.749C1289.54 283.749 1287.96 282.173 1287.96 279.966C1287.96 277.759 1289.54 275.867 1291.75 275.867Z" fill="#069EFF"/>
</g>
</g>
<g opacity="0.3">
<g opacity="0.3">
<path opacity="0.3" d="M785.243 166.466H785.874V165.205H785.243V166.466Z" fill="#069EFF"/>
</g>
<g opacity="0.3">
<path opacity="0.3" d="M785.559 163.312C784.613 163.627 783.983 164.888 783.983 166.15C783.983 167.411 784.613 168.672 785.559 168.356C786.504 168.041 787.134 166.78 787.134 165.519C786.819 164.258 786.189 163.312 785.559 163.312Z" fill="#069EFF"/>
</g>
<g opacity="0.3">
<path opacity="0.3" d="M785.874 163.313C786.82 162.998 787.45 164.259 787.45 165.52C787.45 166.781 786.82 168.042 785.874 168.358C784.929 168.673 784.299 167.412 784.299 166.151C784.299 164.574 784.929 163.313 785.874 163.313Z" fill="#069EFF"/>
</g>
</g>
<g opacity="0.3">
<g opacity="0.3">
<path opacity="0.3" d="M1002.09 463.457L1093.81 384.007L1231.86 389.367V387.16L1093.18 382.116L1001.46 461.881L1002.09 463.457Z" fill="#069EFF"/>
</g>
<g opacity="0.3">
<path opacity="0.3" d="M1231.55 384.323C1233.44 384.323 1235.01 386.214 1235.01 388.421C1235.01 390.628 1233.44 392.204 1231.55 392.204C1229.65 392.204 1228.08 390.313 1228.08 388.106C1228.08 385.899 1229.65 384.323 1231.55 384.323Z" fill="#069EFF"/>
</g>
</g>
</g>
<path d="M785.559 277.129C814.871 274.291 846.705 272.084 880.114 269.877V268.301C846.705 270.193 815.186 272.715 785.559 275.552V277.129Z" fill="#069EFF"/>
<path d="M785.559 273.661C784.613 273.661 783.983 274.922 783.983 276.183C783.983 277.444 784.613 278.705 785.559 278.705C786.504 278.705 787.134 277.444 787.134 276.183C787.134 274.922 786.504 273.661 785.559 273.661Z" fill="#069EFF"/>
<path d="M879.799 266.409C880.745 266.409 881.69 267.67 881.69 268.931C881.69 270.193 880.745 271.769 879.799 271.769C878.854 271.769 877.908 270.508 877.908 269.247C878.223 267.67 878.854 266.409 879.799 266.409Z" fill="#069EFF"/>
<path d="M784.298 272.4C786.189 268.301 788.71 264.518 790.917 260.734C793.438 256.636 795.96 252.537 797.851 248.123C821.49 243.394 847.02 241.187 873.495 238.665C901.547 236.143 932.12 232.99 963.953 227.315H964.269L964.584 227C967.421 221.955 970.888 217.226 974.355 212.812C977.822 208.398 981.289 203.669 984.44 198.309C1008.71 192.004 1034.87 189.166 1061.66 186.014C1077.74 184.122 1095.07 182.23 1112.09 179.708V177.816C1094.76 180.654 1077.74 182.546 1061.66 184.122C1034.87 186.959 1008.39 190.112 984.125 196.418H983.81L983.495 196.733C980.658 202.093 976.876 206.822 973.409 211.236C969.942 215.65 966.475 220.064 963.638 225.423C931.805 231.414 901.232 234.251 873.495 237.089C847.02 239.611 821.49 242.133 797.851 246.862H797.536V247.178C795.329 251.591 792.808 255.69 790.286 259.789C788.08 263.572 785.559 267.355 783.667 271.454L784.298 272.4Z" fill="#069EFF"/>
<path d="M1111.78 175.294C1113.35 174.979 1114.61 176.555 1114.61 178.447C1114.61 180.339 1113.35 182.23 1111.78 182.23C1110.2 182.546 1108.94 180.969 1108.94 179.078C1108.94 177.186 1110.2 175.294 1111.78 175.294Z" fill="#069EFF"/>
<path d="M1050.63 187.905L1087.51 137.776L1262.75 106.879V104.987L1087.19 136.2L1049.68 186.644L1050.63 187.905Z" fill="#069EFF"/>
<path d="M1262.75 101.834C1264.64 101.519 1266.22 103.095 1266.22 105.302C1266.22 107.509 1264.64 109.401 1262.75 110.032C1260.86 110.347 1259.28 108.77 1259.28 106.564C1258.97 104.357 1260.54 102.465 1262.75 101.834Z" fill="#069EFF"/>
<path d="M785.559 500.346C784.613 500.346 783.983 501.292 783.983 502.553C783.983 503.814 784.613 505.075 785.559 505.39C786.504 505.705 787.134 504.444 787.134 503.183C787.134 501.607 786.504 500.346 785.559 500.346Z" fill="#069EFF"/>
<path d="M1046.22 419.319C1057.56 420.265 1069.23 420.896 1080.89 421.526C1091.29 422.157 1102.63 422.787 1113.67 423.418V421.526C1102.63 420.896 1091.6 420.265 1080.89 419.634C1058.19 418.373 1035.5 417.427 1014.38 414.59C1014.07 414.59 1013.75 413.644 1013.44 412.698C1013.12 411.752 1012.81 410.491 1012.18 409.546C1003.98 399.772 996.417 389.368 989.168 379.594C981.919 369.821 974.669 360.047 967.105 350.904C965.844 349.012 963.323 347.436 962.062 347.436C944.412 347.436 926.761 346.805 910.687 346.49C872.234 345.544 835.357 344.914 801.948 347.751H801.633V348.066C797.85 355.318 793.438 361.623 789.34 367.929C787.764 370.451 785.873 372.973 784.297 375.496L784.928 376.441C786.504 373.919 788.395 371.397 789.971 368.875C794.383 362.569 798.481 356.579 802.263 349.327C835.673 346.49 872.234 347.436 910.687 348.382C927.076 348.697 944.412 349.012 962.062 349.327C963.007 349.327 965.214 350.904 966.159 352.48C973.724 361.623 980.973 371.397 988.222 381.171C995.472 390.944 1003.04 401.348 1011.23 411.122C1011.55 411.752 1011.86 412.698 1012.18 413.644C1012.49 414.905 1013.12 416.482 1014.07 416.797C1024.78 417.743 1035.5 418.689 1046.22 419.319Z" fill="#069EFF"/>
<path d="M783.983 373.919C783.352 374.865 783.352 376.441 783.983 377.387C784.613 378.333 785.559 378.648 786.189 377.702C786.819 376.756 786.819 375.18 786.189 374.234C785.559 373.288 784.613 372.973 783.983 373.919Z" fill="#069EFF"/>
<path d="M1113.67 419.004C1115.24 419.004 1116.5 420.58 1116.5 422.787C1116.5 424.679 1115.24 426.255 1113.67 426.255C1112.09 426.255 1110.83 424.364 1110.83 422.472C1110.83 420.265 1112.09 419.004 1113.67 419.004Z" fill="#069EFF"/>
<path d="M986.332 424.048L986.962 422.787L976.561 408.6L941.575 406.077L914.785 368.244L792.493 364.776V366.037L914.154 369.821L940.945 407.654L976.246 410.176L986.332 424.048Z" fill="#069EFF"/>
<path d="M988.223 421.211C989.168 422.472 989.168 424.364 988.223 425.625C987.277 426.886 986.017 426.886 985.071 425.625C984.125 424.364 984.125 422.472 985.071 421.211C985.701 419.95 987.277 419.95 988.223 421.211Z" fill="#069EFF"/>
<path d="M955.128 458.098L1002.09 463.773L1020.69 442.019L1062.61 446.118V444.226L1020.06 440.442L1001.46 461.881L955.758 456.522L934.641 425.94L903.753 423.417L893.352 436.974L795.329 427.201V428.462L893.667 438.551L904.068 424.994L934.011 427.516L955.128 458.098Z" fill="#069EFF"/>
<path d="M1062.61 441.704C1064.18 441.704 1065.13 443.595 1065.13 445.172C1065.13 446.748 1063.87 448.325 1062.61 448.325C1061.03 448.325 1060.08 446.433 1060.08 444.857C1060.08 442.965 1061.03 441.704 1062.61 441.704Z" fill="#069EFF"/>
<path d="M856.475 406.708C858.051 405.132 859.312 402.925 860.257 401.033C862.148 397.25 864.355 393.466 867.822 392.836C873.81 392.205 880.114 392.836 886.418 393.782C888.624 394.097 890.83 394.412 893.037 394.412V392.836C890.83 392.521 888.624 392.521 886.418 392.205C880.114 391.575 873.495 390.629 867.822 391.575C864.04 392.521 861.833 396.304 859.942 400.087C858.997 401.979 857.736 403.871 856.79 405.447C832.206 403.871 808.252 401.979 785.874 400.403V401.664C807.621 403.24 831.891 405.132 856.475 406.708Z" fill="#069EFF"/>
<path d="M785.559 398.195C784.613 398.195 783.983 399.141 783.983 400.718C783.983 401.979 784.613 403.24 785.559 403.24C786.504 403.24 787.134 402.294 787.134 400.718C787.134 399.456 786.504 398.195 785.559 398.195Z" fill="#069EFF"/>
<path d="M893.037 390.629C893.982 390.629 894.928 392.205 894.928 393.782C894.928 395.358 893.982 396.619 893.037 396.304C892.091 396.304 891.146 394.727 891.146 393.151C891.146 391.575 891.776 390.629 893.037 390.629Z" fill="#069EFF"/>
<path d="M832.521 325.367C849.541 325.052 866.876 324.736 884.842 324.106V322.529C849.541 323.475 816.132 324.106 785.243 324.421V325.682C800.688 325.997 816.447 325.682 832.521 325.367Z" fill="#069EFF"/>
<path d="M785.559 322.844C784.613 322.844 783.983 324.105 783.983 325.366C783.983 326.628 784.613 327.889 785.559 327.889C786.504 327.889 787.134 326.628 787.134 325.366C786.819 323.79 786.189 322.844 785.559 322.844Z" fill="#069EFF"/>
<path d="M884.842 320.637C885.788 320.637 886.733 321.899 886.733 323.475C886.733 325.051 885.788 326.312 884.842 326.312C883.897 326.312 882.951 325.051 882.951 323.475C882.951 321.899 883.897 320.637 884.842 320.637Z" fill="#069EFF"/>
<path d="M1030.46 345.229C1041.8 345.229 1053.47 344.914 1065.13 344.598C1079.94 344.283 1095.7 343.653 1111.14 343.968V342.076C1095.7 341.761 1079.94 342.391 1065.13 342.707C1039.6 343.337 1014.38 344.283 991.059 341.13C987.907 336.716 984.756 332.618 981.289 328.204C974.67 319.376 967.736 310.233 961.747 300.775C959.226 297.307 955.759 296.046 953.237 296.046C890.83 298.883 833.782 301.405 783.667 303.928V305.189C833.782 302.666 890.83 300.46 953.237 297.622C955.443 297.622 958.595 298.883 960.801 302.036C967.105 311.81 973.724 320.637 980.658 329.465C984.125 333.879 987.277 338.293 990.429 342.707V343.022H990.744C1003.67 344.598 1016.9 345.229 1030.46 345.229Z" fill="#069EFF"/>
<path d="M1111.15 339.869C1112.72 339.869 1113.98 341.446 1113.98 343.337C1113.98 345.229 1112.72 346.805 1111.15 346.805C1109.57 346.805 1108.31 345.229 1108.31 343.337C1108.31 341.446 1109.57 339.869 1111.15 339.869Z" fill="#069EFF"/>
<path d="M1063.24 287.848L1162.2 283.434V281.227L1063.87 286.272L1034.87 252.852L918.251 262.311L897.134 234.566L896.188 235.828L917.621 263.887L1034.55 254.744L1063.24 287.848Z" fill="#069EFF"/>
<path d="M1162.2 278.705C1163.78 278.705 1165.36 280.282 1165.36 282.173C1165.36 284.065 1164.1 285.957 1162.2 285.957C1160.63 285.957 1159.05 284.38 1159.05 282.489C1159.05 280.597 1160.31 278.705 1162.2 278.705Z" fill="#069EFF"/>
<path d="M1069.86 237.404L1142.98 230.783V228.891L1070.49 235.827L1044.01 206.506L970.572 215.334V216.911L1043.38 208.083L1069.86 237.404Z" fill="#069EFF"/>
<path d="M1142.66 226.369C1144.24 226.369 1145.82 227.63 1145.82 229.837C1145.82 232.044 1144.55 233.62 1142.66 233.62C1141.09 233.62 1139.83 232.359 1139.83 230.152C1139.83 228.261 1141.09 226.369 1142.66 226.369Z" fill="#069EFF"/>
<path d="M1049.05 386.846L1104.53 389.053V387.476L1049.68 385.269L1015.96 342.707L1015.01 343.968L1049.05 386.846Z" fill="#069EFF"/>
<path d="M1104.53 384.639C1106.1 384.639 1107.36 386.215 1107.36 388.107C1107.36 389.998 1106.1 391.575 1104.53 391.575C1102.95 391.575 1101.69 389.998 1101.69 388.107C1101.69 386.215 1102.95 384.639 1104.53 384.639Z" fill="#069EFF"/>
<path d="M785.559 475.438C784.613 475.438 783.983 476.384 783.983 477.645C783.983 478.906 784.613 480.168 785.559 480.483C786.504 480.483 787.134 479.537 787.134 478.276C787.134 477.015 786.504 475.754 785.559 475.438Z" fill="#069EFF"/>
<path d="M783.983 442.334C790.917 442.65 796.59 443.595 803.209 444.541V443.28C796.59 442.334 790.602 441.389 783.983 441.073V442.334Z" fill="#069EFF"/>
<path d="M803.209 446.433C804.155 446.433 804.785 445.487 804.785 444.226C804.785 442.65 804.155 441.389 803.209 441.389C802.264 441.389 801.633 442.335 801.633 443.596C801.633 444.857 802.579 446.118 803.209 446.433Z" fill="#069EFF"/>
<path d="M1013.12 319.376L1078.05 318.115V316.223L1013.75 317.8L966.16 258.843L965.214 260.104L1013.12 319.376Z" fill="#069EFF"/>
<path d="M1078.05 314.016C1079.63 314.016 1080.89 315.593 1080.89 317.484C1080.89 319.376 1079.63 320.952 1078.05 320.952C1076.47 320.952 1075.53 319.376 1075.53 317.484C1075.21 315.593 1076.47 314.016 1078.05 314.016Z" fill="#069EFF"/>
</g>
<mask id="mask1_57_2" style="mask-type:alpha" maskUnits="userSpaceOnUse" x="-171" y="5" width="846" height="667">
<path d="M-170.083 5.35962H674.929V671.226H-170.083V5.35962Z" fill="url(#paint1_linear_57_2)"/>
</mask>
<g mask="url(#mask1_57_2)">
<g opacity="0.3">
<g opacity="0.3">
<g opacity="0.3">
<path opacity="0.3" d="M566.504 388.422C533.095 390.945 497.164 393.782 457.766 396.935V398.511C533.41 392.206 597.077 387.477 654.441 383.063V381.802C626.705 383.693 597.708 385.9 566.504 388.422Z" fill="#069EFF"/>
</g>
<g opacity="0.3">
<path opacity="0.3" d="M654.441 384.954C655.387 384.954 656.017 383.693 656.017 382.432C656.017 381.171 655.387 379.91 654.441 379.91C653.496 379.91 652.865 381.171 652.865 382.432C652.865 383.693 653.496 384.954 654.441 384.954Z" fill="#069EFF"/>
</g>
<g opacity="0.3">
<path opacity="0.3" d="M458.081 401.033C456.82 401.033 455.875 399.772 455.875 398.196C455.875 396.62 456.82 395.043 458.081 395.043C459.342 395.043 460.287 396.304 460.287 397.881C460.287 399.457 459.342 400.718 458.081 401.033Z" fill="#069EFF"/>
</g>
</g>
<g opacity="0.3">
<g opacity="0.3">
<path opacity="0.3" d="M619.141 384.639L591.089 422.157L309.944 454.946L267.079 500.661L-5.24097 541.332V543.539L267.394 502.553L310.575 456.838L591.405 423.733L619.456 385.9L619.141 384.639Z" fill="#069EFF"/>
</g>
</g>
<g opacity="0.3">
<g opacity="0.3">
<path opacity="0.3" d="M51.4922 600.919L52.7529 600.604L133.755 522.415L132.495 520.839L52.1225 598.713L39.8303 600.919H51.4922Z" fill="#069EFF"/>
</g>
</g>
<g opacity="0.3">
<g opacity="0.3">
<path opacity="0.3" d="M558.31 96.7904C521.118 88.2779 480.774 78.8196 437.594 68.7307V70.3071C520.803 89.2238 593.295 105.934 654.756 120.436V119.175C624.814 112.239 592.665 104.672 558.31 96.7904Z" fill="#069EFF"/>
</g>
<g opacity="0.3">
<path opacity="0.3" d="M654.441 122.643C655.387 122.958 656.017 121.697 656.017 120.436C656.017 119.175 655.387 117.598 654.441 117.598C653.496 117.283 652.865 118.229 652.865 119.805C653.181 121.067 653.811 122.328 654.441 122.643Z" fill="#069EFF"/>
</g>
<g opacity="0.3">
<path opacity="0.3" d="M437.594 72.8292C436.333 72.5139 435.388 70.9375 435.388 69.0458C435.388 67.1542 436.333 66.2083 437.594 66.5236C438.855 66.8389 439.8 68.4153 439.8 70.3069C439.8 72.1986 438.855 73.1444 437.594 72.8292Z" fill="#069EFF"/>
</g>
</g>
<g opacity="0.3">
<g opacity="0.3">
<path opacity="0.3" d="M-9.65381 178.447V180.969C69.1425 188.22 142.265 194.526 206.563 200.516C227.365 221.64 247.537 240.872 268.34 260.734C279.371 271.138 290.718 281.858 301.749 292.577L302.064 292.893H302.38C372.035 297.622 434.442 297.937 488.339 298.252C521.433 298.568 553.582 298.568 583.525 299.829C589.198 294.154 594.241 287.533 599.284 281.543C604.327 275.552 609.37 269.247 614.413 263.887C628.281 264.833 640.888 265.463 654.126 266.094V264.833C640.888 264.202 628.281 263.257 614.413 262.626C609.055 267.986 604.012 274.291 598.969 280.282C593.926 286.272 588.568 292.893 583.21 298.568C553.582 297.307 521.433 296.991 488.339 296.991C434.127 296.676 372.035 296.045 302.695 291.316C291.978 280.597 280.632 270.193 269.6 259.473C248.798 239.611 228.311 220.063 207.509 198.94L207.194 198.625H206.878C142.581 192.319 69.1425 185.698 -9.65381 178.447Z" fill="#069EFF"/>
</g>
<g opacity="0.3">
<path opacity="0.3" d="M654.441 267.67C655.387 267.67 656.017 266.725 656.017 265.148C656.017 263.887 655.387 262.626 654.441 262.626C653.496 262.626 652.865 263.572 652.865 265.148C652.865 266.409 653.496 267.67 654.441 267.67Z" fill="#069EFF"/>
</g>
</g>
<g opacity="0.3">
<g opacity="0.3">
<path opacity="0.3" d="M262.666 189.482L261.721 190.743L282.523 211.867L349.027 217.542L397.881 269.247L602.121 277.76V276.499L398.511 267.356L349.657 215.65L283.153 209.975L262.666 189.482Z" fill="#069EFF"/>
</g>
<g opacity="0.3">
<path opacity="0.3" d="M260.46 192.95C259.199 191.689 258.884 189.167 259.83 187.59C260.775 186.014 262.981 186.014 264.242 187.275C265.503 188.536 265.818 191.059 264.873 192.635C263.612 194.211 261.721 194.211 260.46 192.95Z" fill="#069EFF"/>
</g>
</g>
<g opacity="0.3">
<g opacity="0.3">
<path opacity="0.3" d="M323.182 146.92L232.723 133.993L195.216 161.738L105.073 151.018V153.225L195.847 163.945L233.354 135.885L322.551 148.811L361.949 191.689L417.422 197.679L435.388 180.97L597.393 201.463V200.202L435.072 179.393L416.792 195.788L362.58 189.797L323.182 146.92Z" fill="#069EFF"/>
</g>
<g opacity="0.3">
<path opacity="0.3" d="M105.389 156.378C103.183 156.063 101.291 154.171 101.291 151.649C101.291 149.442 103.183 147.55 105.389 147.866C107.595 148.181 109.486 150.073 109.486 152.595C109.486 155.117 107.595 156.693 105.389 156.378Z" fill="#069EFF"/>
</g>
</g>
<g opacity="0.3">
<g opacity="0.3">
<path opacity="0.3" d="M560.516 228.261C540.66 226.369 519.542 224.793 497.479 224.478C495.273 226.369 493.382 228.576 491.806 230.783C487.709 235.512 484.242 240.241 478.883 238.665C473.21 238.35 467.537 238.035 462.179 237.719C453.353 237.404 444.843 237.089 435.703 235.828V237.404C444.843 238.665 453.353 238.98 462.179 239.296C467.537 239.611 473.21 239.611 478.568 239.926C484.242 241.503 488.339 236.773 492.436 231.414C494.328 229.207 495.903 227 498.11 225.423C534.356 226.054 568.396 229.522 598.969 232.99C618.195 235.197 637.106 237.089 655.072 238.35V237.089C637.106 235.828 618.195 233.936 598.969 231.729C586.362 230.783 573.754 229.522 560.516 228.261Z" fill="#069EFF"/>
</g>
<g opacity="0.3">
<path opacity="0.3" d="M654.441 240.872C655.387 240.872 656.017 239.926 656.017 238.35C656.017 237.089 655.387 235.828 654.441 235.828C653.496 235.828 652.865 236.773 652.865 238.35C653.181 239.611 653.811 240.557 654.441 240.872Z" fill="#069EFF"/>
</g>
<g opacity="0.3">
<path opacity="0.3" d="M435.388 240.557C434.127 240.557 433.181 238.98 433.181 237.089C433.181 235.197 434.442 233.936 435.703 234.251C436.964 234.251 437.909 235.828 437.909 237.719C437.594 239.296 436.649 240.557 435.388 240.557Z" fill="#069EFF"/>
</g>
</g>
<g opacity="0.3">
<g opacity="0.3">
<path opacity="0.3" d="M635.845 299.198C631.118 306.765 625.759 313.386 620.086 320.007C618.51 321.898 616.934 323.79 615.358 325.682C565.874 326.312 511.663 326.943 449.256 327.573V329.15C511.663 328.519 565.874 327.573 615.358 327.258C616.934 325.367 618.51 323.475 620.086 321.583C625.444 314.962 630.802 308.657 635.53 301.09C641.519 301.09 648.138 301.405 654.126 301.721V300.46C648.453 299.198 641.834 299.198 635.845 299.198Z" fill="#069EFF"/>
</g>
<g opacity="0.3">
<path opacity="0.3" d="M654.441 302.982C655.387 302.982 656.017 302.036 656.017 300.46C656.017 299.199 655.387 297.938 654.441 297.938C653.496 297.938 652.865 298.883 652.865 300.46C652.865 301.721 653.496 302.982 654.441 302.982Z" fill="#069EFF"/>
</g>
<g opacity="0.3">
<path opacity="0.3" d="M449.571 331.042C448.31 331.042 447.365 329.781 447.365 327.889C447.365 325.997 448.31 324.736 449.571 324.736C450.832 324.736 451.777 325.997 451.777 327.889C451.777 329.781 450.832 331.042 449.571 331.042Z" fill="#069EFF"/>
</g>
</g>
<g opacity="0.3">
<g opacity="0.3">
<path opacity="0.3" d="M252.58 299.829L-3.98035 296.361V298.884L251.95 301.721L320.66 364.146L615.989 352.165L641.834 383.693L642.465 382.747L616.304 350.589L321.291 362.254L252.58 299.829Z" fill="#069EFF"/>
</g>
<g opacity="0.3">
<path opacity="0.3" d="M-3.66517 302.036C-6.18665 302.036 -8.39294 299.829 -8.39294 297.622C-8.39294 295.415 -6.18665 293.208 -3.66517 293.208C-1.14369 293.208 1.06261 295.415 1.06261 297.622C1.06261 300.145 -1.14369 302.036 -3.66517 302.036Z" fill="#069EFF"/>
</g>
</g>
<g opacity="0.3">
<g opacity="0.3">
<path opacity="0.3" d="M105.074 378.649L-125.957 389.053V391.575L104.443 380.856L165.589 426.886L391.892 408.285L429.399 442.966L430.03 441.389L392.207 406.393L166.22 424.679L105.074 378.649Z" fill="#069EFF"/>
</g>
</g>
<g opacity="0.3">
<g opacity="0.3">
<path opacity="0.3" d="M90.5751 451.478L-78.3641 467.872V470.394L89.6296 454L146.678 493.409L293.87 474.178V472.286L147.308 491.203L90.5751 451.478Z" fill="#069EFF"/>
</g>
</g>
<g opacity="0.3">
<g opacity="0.3">
<path opacity="0.3" d="M135.332 237.089L11.7791 229.838V232.36L134.386 239.296L204.672 300.46L205.618 298.883L135.332 237.089Z" fill="#069EFF"/>
</g>
<g opacity="0.3">
<path opacity="0.3" d="M12.0941 235.513C9.57264 235.513 7.36633 233.306 7.36633 230.783C7.36633 228.261 9.57264 226.369 12.0941 226.685C14.6156 226.685 16.5067 228.892 16.5067 231.414C16.5067 233.936 14.6156 235.828 12.0941 235.513Z" fill="#069EFF"/>
</g>
</g>
<g opacity="0.3">
<g opacity="0.3">
<path opacity="0.3" d="M652.551 146.92C614.413 139.353 575.015 131.471 530.574 123.274V124.85C575.33 133.048 614.413 140.929 652.551 148.181C652.866 148.181 653.811 148.811 654.757 150.073L655.072 149.127C654.126 148.181 653.181 147.235 652.551 146.92Z" fill="#069EFF"/>
</g>
<g opacity="0.3">
<path opacity="0.3" d="M653.811 151.649C654.442 152.595 655.387 152.595 656.018 151.649C656.648 150.703 656.333 149.127 655.702 148.181C655.072 147.235 654.126 147.235 653.496 148.181C653.181 148.812 653.181 150.388 653.811 151.649Z" fill="#069EFF"/>
</g>
<g opacity="0.3">
<path opacity="0.3" d="M530.574 127.057C529.628 126.742 528.683 125.481 528.683 123.904C528.683 122.328 529.628 121.067 530.574 121.382C531.519 121.697 532.465 122.959 532.465 124.535C532.78 126.111 531.835 127.372 530.574 127.057Z" fill="#069EFF"/>
</g>
</g>
<g opacity="0.3">
<g opacity="0.3">
<path opacity="0.3" d="M656.017 190.113C633.009 186.96 609.685 183.492 584.155 179.393V180.97C609.37 185.068 633.009 188.536 656.017 191.374V190.113Z" fill="#069EFF"/>
</g>
<g opacity="0.3">
<path opacity="0.3" d="M584.155 177.501C583.21 177.501 582.264 178.447 582.264 180.024C582.264 181.6 582.895 182.861 584.155 183.176C585.101 183.176 585.731 182.231 585.731 180.654C586.046 179.078 585.101 177.817 584.155 177.501Z" fill="#069EFF"/>
</g>
</g>
<g opacity="0.3">
<g opacity="0.3">
<path opacity="0.3" d="M209.715 333.249L71.3491 335.14V337.347L209.4 335.14L303.01 415.221L303.956 413.644L209.715 333.249Z" fill="#069EFF"/>
</g>
<g opacity="0.3">
<path opacity="0.3" d="M71.349 340.5C69.1427 340.5 67.2516 338.608 67.2516 336.401C67.2516 333.879 69.1427 331.988 71.349 331.988C73.5553 331.988 75.4464 333.879 75.4464 336.086C75.7616 338.608 73.8705 340.5 71.349 340.5Z" fill="#069EFF"/>
</g>
</g>
</g>
<path d="M430.975 225.109V226.685C485.502 231.414 535.617 235.513 579.743 239.296C583.21 244.026 586.361 249.385 589.198 254.43C593.296 261.366 596.763 267.987 601.49 272.401C617.25 270.824 631.748 272.085 646.877 273.346C649.399 273.662 651.92 273.662 654.441 273.977V272.716C651.92 272.401 649.399 272.401 646.877 272.085C632.063 270.824 617.565 269.563 601.49 270.824C597.078 266.41 593.296 260.105 589.513 253.169C586.677 247.809 583.525 242.449 579.743 237.72V237.405H579.427C535.617 234.252 485.502 229.838 430.975 225.109Z" fill="#069EFF"/>
<path d="M654.441 276.183C655.387 276.183 656.017 275.238 656.017 273.661C656.017 272.4 655.387 271.139 654.441 271.139C653.496 271.139 652.865 272.085 652.865 273.661C652.865 274.922 653.496 276.183 654.441 276.183Z" fill="#069EFF"/>
<path d="M430.975 229.207C429.714 229.207 428.454 227.631 428.454 225.739C428.454 223.848 429.399 222.586 430.975 222.586C432.236 222.586 433.181 224.163 433.181 226.054C433.497 227.946 432.236 229.207 430.975 229.207Z" fill="#069EFF"/>
<path d="M321.921 152.279L191.434 133.993V136.2L321.291 153.856L344.299 185.699L515.76 204.931L534.671 235.197L535.617 234.251L516.075 203.354L344.93 183.807L321.921 152.279Z" fill="#069EFF"/>
<path d="M191.75 139.037C189.858 138.722 188.282 136.83 188.282 134.623C188.282 132.417 189.858 130.84 191.75 131.155C193.641 131.471 195.217 133.362 195.217 135.569C195.217 137.776 193.641 139.353 191.75 139.037Z" fill="#069EFF"/>
<path d="M216.334 93.6376L40.4608 63.0557V65.5779L215.389 95.5293L253.211 144.397L254.472 143.136L216.334 93.6376Z" fill="#069EFF"/>
<path d="M40.7759 68.7307C38.2544 68.4154 36.3633 65.8932 36.3633 63.6862C36.3633 61.164 38.2544 59.5876 40.7759 60.2181C43.2973 60.5334 45.1884 63.0557 45.1884 65.2626C45.1884 67.4696 42.9822 69.0459 40.7759 68.7307Z" fill="#069EFF"/>
<path d="M593.61 422.472L593.295 422.788C587.937 431.931 582.264 441.389 576.906 452.424C528.367 459.675 477.622 466.927 418.683 476.385V477.961C477.622 468.503 528.367 460.936 577.221 453.685H577.536V453.37C583.209 442.335 588.567 432.877 593.926 423.733C615.673 421.211 635.215 419.004 654.756 417.113V415.852C634.9 417.428 615.358 419.95 593.61 422.472Z" fill="#069EFF"/>
<path d="M654.441 419.004C655.387 419.004 656.017 417.743 656.017 416.167C656.017 414.906 655.387 413.645 654.441 413.645C653.496 413.645 652.865 414.906 652.865 416.482C652.865 418.058 653.811 419.004 654.441 419.004Z" fill="#069EFF"/>
<path d="M418.683 480.168C417.422 480.483 416.161 479.222 416.161 477.331C416.161 475.439 417.107 473.863 418.683 473.863C419.944 473.547 421.204 474.809 421.204 476.7C421.204 478.592 419.944 480.168 418.683 480.168Z" fill="#069EFF"/>
<path d="M510.717 304.558L341.778 302.667L341.462 302.982C332.637 311.179 325.073 321.899 317.508 331.988C308.053 344.599 298.282 357.84 286.305 367.614C256.362 368.875 223.898 370.136 189.858 371.082V373.289C223.898 372.343 256.678 371.082 286.62 369.821H286.935L287.25 369.506C299.543 359.417 309.629 345.86 319.084 333.249C326.649 323.16 334.213 312.756 342.723 304.558L511.032 306.135C514.499 309.603 517.336 314.332 520.172 318.746C525.53 326.943 530.889 335.771 538.453 335.456C563.983 335.771 588.883 335.14 611.576 334.51C626.39 334.195 640.888 333.564 655.072 333.564V332.303C641.203 332.303 626.39 332.618 611.576 333.249C588.883 333.879 563.983 334.51 538.453 334.195C531.519 334.195 526.476 326.313 521.118 317.8C517.651 313.071 514.499 308.026 510.717 304.558Z" fill="#069EFF"/>
<path d="M654.441 335.456C655.387 335.456 656.017 334.195 656.017 332.934C656.017 331.672 655.387 330.411 654.441 330.411C653.496 330.411 652.865 331.672 652.865 332.934C652.865 334.51 653.496 335.456 654.441 335.456Z" fill="#069EFF"/>
<path d="M189.858 375.811C187.967 375.811 186.391 374.235 186.391 372.028C186.391 369.821 187.967 367.929 189.858 367.929C191.749 367.929 193.325 369.506 193.325 371.713C193.325 373.92 191.749 375.811 189.858 375.811Z" fill="#069EFF"/>
<path d="M523.324 322.529L394.098 323.16L366.047 360.047L329.485 361.624L318.769 374.865L320.03 376.442L330.116 363.2L366.677 361.939L394.413 325.052L523.324 323.79V322.529Z" fill="#069EFF"/>
<path d="M321.606 378.018C320.345 379.595 318.769 379.594 317.509 378.333C316.248 377.072 316.248 374.865 317.509 373.289C318.769 371.713 320.345 371.713 321.606 372.974C322.552 374.235 322.552 376.442 321.606 378.018Z" fill="#069EFF"/>
<path d="M405.76 378.018L373.296 379.91L351.233 409.546L303.955 413.329L284.729 391.575L241.549 394.412V396.304L284.099 393.782L303.325 415.221L351.864 411.122L373.927 381.801L405.13 379.91L415.846 393.467L520.173 385.9V384.324L416.477 391.575L405.76 378.018Z" fill="#069EFF"/>
<path d="M241.864 399.142C239.973 399.142 238.712 397.565 238.712 395.674C238.712 393.467 240.288 391.89 241.864 391.575C243.755 391.575 245.016 393.151 245.016 395.043C245.016 397.25 243.44 399.142 241.864 399.142Z" fill="#069EFF"/>
<path d="M434.127 347.121C431.29 347.121 428.453 347.436 425.617 347.751C422.78 348.067 419.943 348.067 417.107 348.382V349.958C419.943 349.958 422.78 349.643 425.617 349.328C431.92 348.697 437.594 348.382 443.897 349.328C446.104 349.958 447.364 352.796 448.94 355.633C450.516 358.471 452.092 361.624 454.614 362.254C501.261 360.993 544.442 359.102 582.894 357.21C607.479 355.949 631.433 354.688 654.126 354.057V352.796C631.748 353.426 607.479 354.688 582.894 355.949C544.442 357.84 501.261 359.732 454.614 360.993C452.407 360.363 451.147 357.525 449.571 355.003C447.995 352.165 446.419 349.013 443.582 348.067C440.746 347.121 437.594 346.806 434.127 347.121Z" fill="#069EFF"/>
<path d="M654.441 355.634C655.387 355.634 656.017 354.373 656.017 353.112C656.017 351.85 655.387 350.589 654.441 350.589C653.496 350.589 652.865 351.85 652.865 353.112C653.181 354.688 653.811 355.634 654.441 355.634Z" fill="#069EFF"/>
<path d="M417.422 352.166C416.161 352.166 414.901 350.904 414.901 349.013C414.901 347.121 415.846 345.86 417.422 345.545C418.683 345.545 419.943 346.806 419.943 348.697C419.943 350.589 418.683 352.166 417.422 352.166Z" fill="#069EFF"/>
<path d="M447.995 279.336C440.746 279.021 433.182 279.021 425.932 278.705V280.282C448.311 280.597 470.373 281.543 491.176 282.804C504.729 283.434 517.966 284.065 530.889 284.696C535.302 284.696 538.138 291.001 540.975 297.307C541.921 299.198 542.866 301.09 543.812 302.982C544.757 304.558 546.018 306.45 547.279 306.45C585.416 306.765 621.662 307.08 655.072 307.08V305.819C621.978 306.134 585.416 305.504 547.279 305.189C546.333 305.189 545.388 303.612 544.757 302.351C543.812 300.775 542.866 298.568 542.236 296.676C539.399 290.371 536.247 283.434 531.204 283.434C518.597 283.119 505.044 282.173 491.491 281.543C477.308 280.597 462.494 279.966 447.995 279.336Z" fill="#069EFF"/>
<path d="M654.442 308.657C655.387 308.657 656.018 307.396 656.018 306.135C656.018 304.874 655.387 303.613 654.442 303.613C653.496 303.613 652.866 304.874 652.866 306.135C653.181 307.711 653.811 308.657 654.442 308.657Z" fill="#069EFF"/>
<path d="M425.932 282.804C424.671 282.804 423.411 281.228 423.411 279.651C423.411 277.76 424.356 276.499 425.932 276.499C427.193 276.499 428.454 278.075 428.454 279.651C428.139 281.543 427.193 282.804 425.932 282.804Z" fill="#069EFF"/>
<path d="M550.746 235.512L532.78 261.681L350.288 251.592L313.096 296.046L192.065 294.154V296.046L313.726 297.937L350.918 253.483L533.095 263.257L551.691 236.774L550.746 235.512Z" fill="#069EFF"/>
<path d="M192.38 298.883C190.489 298.883 188.913 296.992 188.913 294.785C188.913 292.578 190.489 291.001 192.38 291.001C194.271 291.001 195.847 292.893 195.847 295.1C195.847 297.307 194.271 298.883 192.38 298.883Z" fill="#069EFF"/>
<path d="M412.379 191.689L390.316 218.488L269.285 207.768L239.658 239.926L140.69 233.936V236.143L240.603 242.133L269.915 209.975L390.947 220.379L413.325 192.95L412.379 191.689Z" fill="#069EFF"/>
<path d="M141.005 239.296C138.798 239.296 137.223 237.404 137.223 234.882C137.223 232.675 138.798 230.783 141.005 231.099C143.211 231.099 144.787 233.306 144.787 235.513C144.787 237.72 142.896 239.296 141.005 239.296Z" fill="#069EFF"/>
<path d="M335.789 171.826L260.145 162.368L233.039 190.743L160.231 183.492V185.699L233.669 192.95L260.775 164.26L335.789 173.718V171.826Z" fill="#069EFF"/>
<path d="M160.231 188.536C158.025 188.221 156.449 186.329 156.449 184.122C156.449 181.915 158.025 180.339 160.231 180.339C162.122 180.654 164.013 182.546 164.013 184.753C164.013 187.275 162.437 188.851 160.231 188.536Z" fill="#069EFF"/>
<path d="M288.827 296.361L254.156 337.032L198.999 337.978V339.869L254.787 338.924L289.772 297.622L288.827 296.361Z" fill="#069EFF"/>
<path d="M198.999 343.022C197.108 343.022 195.532 341.446 195.532 339.239C195.532 337.032 197.108 335.456 198.999 335.14C200.89 335.14 202.466 336.717 202.466 338.924C202.781 341.131 201.205 342.707 198.999 343.022Z" fill="#069EFF"/>
<path d="M654.757 400.403C629.857 402.925 602.751 405.763 575.33 408.6C572.493 411.438 570.287 415.536 567.766 419.635C564.614 425.31 561.462 430.67 557.364 432.876C541.29 431.931 525.216 434.768 507.88 437.606C498.11 439.182 487.708 441.074 476.992 442.019V443.596C487.708 442.65 498.11 440.758 507.88 439.182C525.216 436.345 541.29 433.507 557.364 434.453C562.092 432.246 565.244 426.256 568.396 420.581C570.602 416.797 572.808 412.699 575.645 409.861C603.381 407.024 630.172 404.186 655.072 401.664L654.757 400.403Z" fill="#069EFF"/>
<path d="M654.442 403.556C655.387 403.556 656.018 402.295 656.018 400.718C656.018 399.457 655.387 398.196 654.442 398.196C653.496 398.196 652.866 399.457 652.866 401.034C653.181 402.61 653.811 403.556 654.442 403.556Z" fill="#069EFF"/>
<path d="M476.677 445.488C475.416 445.803 474.471 444.542 474.471 442.65C474.471 441.074 475.416 439.497 476.677 439.182C477.938 439.182 478.883 440.128 478.883 442.02C478.883 443.911 477.938 445.172 476.677 445.488Z" fill="#069EFF"/>
<path d="M655.701 388.107C612.836 391.89 564.612 395.989 511.661 400.403V401.979C564.297 397.565 612.521 393.467 655.701 389.368V388.107Z" fill="#069EFF"/>
<path d="M511.978 398.196C510.717 398.196 510.086 399.772 510.086 401.349C510.086 402.925 511.032 404.186 511.978 404.186C513.238 404.186 513.869 402.61 513.869 401.033C513.869 399.142 513.238 397.88 511.978 398.196Z" fill="#069EFF"/>
<path d="M340.517 214.389L291.348 271.769L225.79 269.247V271.454L291.978 273.661L341.463 215.965L340.517 214.389Z" fill="#069EFF"/>
<path d="M226.105 274.292C224.214 274.292 222.638 272.4 222.638 270.509C222.638 268.302 224.214 266.725 226.105 266.725C227.996 266.725 229.572 268.617 229.572 270.509C229.572 272.4 227.996 274.292 226.105 274.292Z" fill="#069EFF"/>
<g opacity="0.3">
<g opacity="0.3">
<g opacity="0.3">
<path opacity="0.3" d="M621.347 217.857C609.685 216.596 598.023 215.335 585.416 214.074V215.65C610 218.173 632.379 220.38 654.126 223.217V221.956C643.725 220.38 632.694 219.118 621.347 217.857Z" fill="#069EFF"/>
</g>
<g opacity="0.3">
<path opacity="0.3" d="M654.442 224.793C655.387 224.793 656.018 223.847 656.018 222.271C656.018 221.01 655.387 219.749 654.442 219.434C653.496 219.434 652.866 220.379 652.866 221.956C652.866 223.532 653.496 224.793 654.442 224.793Z" fill="#069EFF"/>
</g>
<g opacity="0.3">
<path opacity="0.3" d="M585.731 217.542C584.786 217.542 584.155 216.281 584.155 214.704C584.155 213.128 584.786 212.182 585.731 212.182C586.677 212.182 587.307 213.443 587.307 215.02C587.307 216.596 586.677 217.542 585.731 217.542Z" fill="#069EFF"/>
</g>
</g>
<g opacity="0.3">
<g opacity="0.3">
<path opacity="0.3" d="M403.554 102.781C323.182 87.0168 235.875 70.3071 130.919 50.4446V52.6515C235.875 72.514 323.182 89.2238 403.239 104.672C410.803 115.392 419.313 124.85 427.508 133.678C433.181 140.299 438.855 146.289 443.898 152.595L444.213 152.91H444.528C524.585 165.206 595.817 176.24 656.333 185.699V184.438C595.817 174.979 524.9 163.945 444.528 151.333C439.485 145.028 434.127 139.038 428.454 132.417C419.944 122.958 411.434 113.5 403.554 102.781Z" fill="#069EFF"/>
</g>
<g opacity="0.3">
<path opacity="0.3" d="M130.919 55.4891C128.713 55.1738 127.137 52.9669 127.137 50.7599C127.137 48.553 129.028 46.9766 130.919 47.2919C133.125 47.6072 134.701 49.8141 134.701 52.021C135.016 54.228 133.125 55.8044 130.919 55.4891Z" fill="#069EFF"/>
</g>
</g>
<g opacity="0.3">
<g opacity="0.3">
<path opacity="0.3" d="M217.595 23.9614L270.546 79.135L271.492 77.8739L219.801 23.9614H217.595Z" fill="#069EFF"/>
</g>
</g>
<g opacity="0.3">
<g opacity="0.3">
<path opacity="0.3" d="M612.522 533.135C597.393 536.919 581.949 540.702 566.19 544.485V546.062C597.393 538.18 627.02 530.928 654.442 524.308V523.046C641.204 526.199 627.02 529.667 612.522 533.135Z" fill="#069EFF"/>
</g>
<g opacity="0.3">
<path opacity="0.3" d="M654.442 526.199C655.387 525.884 656.017 524.623 656.017 523.362C656.017 522.101 655.387 520.839 654.442 521.155C653.496 521.47 652.866 522.731 652.866 523.992C653.181 525.569 653.811 526.514 654.442 526.199Z" fill="#069EFF"/>
</g>
<g opacity="0.3">
<path opacity="0.3" d="M566.505 548.268C565.559 548.584 564.614 547.323 564.614 546.061C564.614 544.485 565.559 543.224 566.505 542.909C567.45 542.593 568.396 543.854 568.396 545.116C568.081 546.377 567.45 547.953 566.505 548.268Z" fill="#069EFF"/>
</g>
</g>
<g opacity="0.3">
<g opacity="0.3">
<path opacity="0.3" d="M442.952 315.593C441.061 315.593 439.8 316.539 438.224 317.8C437.594 318.115 437.279 318.746 436.333 319.061C426.247 328.52 416.792 337.978 407.651 347.121C398.196 356.579 388.425 366.353 377.394 376.442C374.242 379.91 371.405 383.063 368.253 386.216C362.895 391.891 357.852 397.25 353.124 403.556C350.288 407.339 346.19 411.122 343.354 411.438C302.38 416.167 257.938 419.32 211.606 422.788C184.815 424.679 156.134 426.886 126.506 429.409V431.616C156.134 429.093 184.815 426.886 211.606 424.679C257.938 421.211 302.695 417.743 343.354 413.014C346.506 412.699 351.233 408.285 354.07 404.502C358.483 398.511 363.841 393.152 368.884 387.477C371.72 384.324 374.872 381.171 378.024 377.703C389.056 367.299 398.826 357.525 408.282 348.382C417.422 339.239 426.878 329.781 436.964 320.638C437.594 320.322 438.224 319.692 438.54 319.377C440.116 318.115 441.061 317.485 442.637 317.485C494.012 319.377 541.92 318.746 584.155 318.431C608.424 318.115 632.378 317.8 654.441 318.115V316.854C632.378 316.539 608.424 316.854 584.155 317.17C542.236 316.854 494.327 317.485 442.952 315.593Z" fill="#069EFF"/>
</g>
<g opacity="0.3">
<path opacity="0.3" d="M654.442 319.692C655.387 319.692 656.018 318.431 656.018 317.17C656.018 315.909 655.387 314.647 654.442 314.647C653.496 314.647 652.866 315.909 652.866 317.17C652.866 318.431 653.496 319.692 654.442 319.692Z" fill="#069EFF"/>
</g>
<g opacity="0.3">
<path opacity="0.3" d="M126.506 434.453C124.3 434.768 122.724 432.877 122.724 430.67C122.724 428.463 124.615 426.571 126.506 426.256C128.713 425.941 130.289 427.832 130.289 430.039C130.604 432.246 128.713 434.453 126.506 434.453Z" fill="#069EFF"/>
</g>
</g>
<g opacity="0.3">
<g opacity="0.3">
<path opacity="0.3" d="M529.627 343.338C519.226 353.742 509.455 364.777 499.685 375.811C494.011 382.117 488.338 388.738 482.665 394.728C476.361 395.359 469.742 395.674 463.123 395.989C449.885 396.62 435.702 397.25 421.204 399.457C414.585 401.034 409.542 407.339 404.499 413.33C401.977 416.167 399.456 419.32 396.934 421.842L397.565 423.103C400.401 420.581 402.923 417.428 405.129 414.275C409.857 408.285 414.9 402.295 420.888 400.718C435.072 398.511 449.255 397.881 462.493 396.935C469.112 396.62 475.731 396.305 482.35 395.674H482.665V395.359C488.338 389.053 494.327 382.432 500 376.127C509.771 365.092 519.541 354.057 529.312 343.968C576.275 342.707 616.934 341.446 655.386 340.5V339.239C617.249 340.816 576.905 342.077 529.627 343.338Z" fill="#069EFF"/>
</g>
<g opacity="0.3">
<path opacity="0.3" d="M399.142 425.31C397.881 426.256 396.305 425.941 395.675 424.679C395.044 423.103 395.359 421.211 396.62 419.95C397.881 419.005 399.457 419.32 400.087 420.581C400.718 422.157 400.402 424.364 399.142 425.31Z" fill="#069EFF"/>
</g>
</g>
<g opacity="0.3">
<g opacity="0.3">
<path opacity="0.3" d="M547.279 415.536L497.479 420.896C487.078 428.778 477.938 440.443 468.167 452.739C466.591 454.946 464.7 457.153 463.124 459.36C462.179 459.991 461.548 460.936 460.603 461.567C459.027 463.143 457.451 464.72 456.19 465.035L370.775 477.331C366.362 473.863 361.95 470.71 357.537 467.872C349.973 462.828 342.724 458.099 336.42 450.848L336.105 450.532H335.789C318.139 449.271 299.543 451.793 281.262 454.631C268.655 456.522 255.417 458.414 241.864 459.045V460.936C255.417 460.306 268.655 458.414 281.262 456.523C299.543 454 317.824 451.163 335.159 452.424C341.463 459.675 349.027 464.72 356.276 469.449C360.689 472.286 365.417 475.439 369.514 478.907H369.829L455.56 466.611C457.451 466.296 459.027 464.404 460.603 462.828C461.233 461.882 462.179 461.252 462.809 460.621C464.7 458.414 466.276 456.207 467.852 454C477.308 441.704 486.448 430.354 496.534 422.472L545.703 417.428C548.539 421.527 552.322 424.364 555.789 427.202C558.31 429.093 560.516 430.985 562.408 433.192C582.264 433.192 602.121 430.354 620.402 427.517C632.064 425.625 643.725 424.049 654.757 423.103V421.842C643.725 422.788 632.064 424.364 620.402 426.256C602.121 429.093 582.579 431.931 562.723 431.931C560.832 429.724 558.625 427.832 556.104 425.941C553.898 422.788 550.115 419.95 547.279 415.536Z" fill="#069EFF"/>
</g>
<g opacity="0.3">
<path opacity="0.3" d="M242.179 463.774C240.288 463.774 239.027 462.197 239.027 460.306C239.027 458.099 240.603 456.522 242.495 456.207C244.386 456.207 245.646 457.783 245.646 459.675C245.331 461.882 244.07 463.774 242.179 463.774Z" fill="#069EFF"/>
</g>
</g>
<g opacity="0.3">
<g opacity="0.3">
<path opacity="0.3" d="M609.685 372.344C595.186 373.289 580.058 374.235 564.298 375.496V377.073C579.742 375.812 595.186 374.55 609.37 373.92C613.782 380.541 618.825 385.9 623.868 390.945C633.954 389.999 644.355 389.053 654.441 388.738V387.477C644.355 388.107 634.27 388.738 624.184 389.684C619.141 384.324 614.098 379.28 609.685 372.344Z" fill="#069EFF"/>
</g>
<g opacity="0.3">
<path opacity="0.3" d="M654.441 390.629C655.387 390.629 656.017 389.368 656.017 388.107C656.017 386.846 655.387 385.585 654.441 385.585C653.496 385.585 652.865 386.846 652.865 388.107C652.865 389.368 653.811 390.629 654.441 390.629Z" fill="#069EFF"/>
</g>
<g opacity="0.3">
<path opacity="0.3" d="M564.298 378.964C563.353 378.964 562.407 377.703 562.407 376.442C562.407 374.866 563.353 373.604 564.298 373.604C565.244 373.604 566.19 374.866 566.19 376.127C566.19 377.703 565.244 378.964 564.298 378.964Z" fill="#069EFF"/>
</g>
</g>
<g opacity="0.3">
<g opacity="0.3">
<path opacity="0.3" d="M654.442 286.904C630.488 286.588 604.642 285.642 577.536 284.381V285.958C604.642 287.219 630.488 288.165 654.442 288.48V286.904Z" fill="#069EFF"/>
</g>
<g opacity="0.3">
<path opacity="0.3" d="M654.442 290.056C655.387 290.056 656.018 289.11 656.018 287.534C656.018 286.273 655.387 285.012 654.442 285.012C653.496 285.012 652.866 285.958 652.866 287.534C652.866 288.795 653.496 290.056 654.442 290.056Z" fill="#069EFF"/>
</g>
<g opacity="0.3">
<path opacity="0.3" d="M577.537 287.534C576.591 287.534 575.646 286.273 575.646 284.696C575.646 283.12 576.591 281.859 577.537 281.859C578.482 281.859 579.428 283.12 579.428 284.696C579.428 286.588 578.482 287.849 577.537 287.534Z" fill="#069EFF"/>
</g>
</g>
<g opacity="0.3">
<g opacity="0.3">
<path opacity="0.3" d="M655.702 259.159C598.023 255.375 532.78 250.962 456.19 245.602C446.734 251.907 438.54 260.105 429.714 268.932C425.932 272.716 421.835 276.814 417.422 280.913C408.282 288.164 399.457 296.046 387.164 308.027C314.672 307.396 228.941 307.081 132.495 305.82V308.027C229.257 309.288 314.987 309.603 387.48 309.918H387.795L388.11 309.603C400.402 297.623 409.227 289.741 418.368 282.174C422.78 278.075 426.562 273.977 430.66 270.193C439.485 261.366 447.68 253.168 456.82 246.863C533.41 251.907 598.654 256.006 656.333 259.789V259.159H655.702Z" fill="#069EFF"/>
</g>
<g opacity="0.3">
<path opacity="0.3" d="M132.495 311.179C130.289 311.179 128.713 309.288 128.713 307.081C128.713 304.874 130.604 302.982 132.495 302.982C134.701 302.982 136.277 304.874 136.277 307.081C136.277 309.288 134.386 311.179 132.495 311.179Z" fill="#069EFF"/>
</g>
</g>
<g opacity="0.3">
<g opacity="0.3">
<path opacity="0.3" d="M559.256 168.674L523.325 202.724L303.01 177.186L242.179 223.217L7.05127 205.877V208.399L242.81 225.109L303.64 179.078L523.64 204.3L559.571 169.935L559.256 168.674Z" fill="#069EFF"/>
</g>
<g opacity="0.3">
<path opacity="0.3" d="M7.05126 211.552C4.52978 211.236 2.32349 209.345 2.32349 206.822C2.32349 204.3 4.52978 202.409 7.05126 202.724C9.57274 203.039 11.779 204.931 11.779 207.453C11.779 209.975 9.57274 211.867 7.05126 211.552Z" fill="#069EFF"/>
</g>
</g>
<g opacity="0.3">
<g opacity="0.3">
<path opacity="0.3" d="M429.084 132.732L284.414 108.14L227.681 147.235L55.905 124.22V126.742L228.311 149.127L285.045 110.032L429.084 134.624V132.732Z" fill="#069EFF"/>
</g>
<g opacity="0.3">
<path opacity="0.3" d="M56.2201 129.894C53.6986 129.579 51.8075 127.372 51.8075 125.165C51.8075 122.958 53.6986 121.067 56.2201 121.382C58.7415 121.697 60.6326 123.904 60.6326 126.111C60.3175 128.318 58.4264 130.21 56.2201 129.894Z" fill="#069EFF"/>
</g>
</g>
<g opacity="0.3">
<g opacity="0.3">
<path opacity="0.3" d="M341.778 308.342L272.437 370.136L148.254 375.811V378.018L272.752 372.028L342.723 309.603L341.778 308.342Z" fill="#069EFF"/>
</g>
<g opacity="0.3">
<path opacity="0.3" d="M148.254 380.856C146.048 380.856 144.472 379.279 144.472 377.072C144.472 374.865 146.048 372.974 148.254 372.974C150.46 372.974 152.036 374.55 152.036 376.757C152.036 378.964 150.46 380.856 148.254 380.856Z" fill="#069EFF"/>
</g>
</g>
<g opacity="0.3">
<g opacity="0.3">
<path opacity="0.3" d="M654.757 490.257H654.127V491.518H654.757V490.257Z" fill="#069EFF"/>
</g>
<g opacity="0.3">
<path opacity="0.3" d="M654.443 493.41C655.388 493.095 656.018 491.834 656.018 490.572C656.018 489.311 655.388 488.05 654.443 488.365C653.497 488.681 652.867 489.942 652.867 491.203C653.182 492.464 653.812 493.41 654.443 493.41Z" fill="#069EFF"/>
</g>
<g opacity="0.3">
<path opacity="0.3" d="M654.127 493.41C653.181 493.725 652.551 492.464 652.551 491.203C652.551 489.942 653.181 488.681 654.127 488.365C655.072 488.05 655.703 489.311 655.703 490.572C655.703 491.834 655.072 493.41 654.127 493.41Z" fill="#069EFF"/>
</g>
</g>
<g opacity="0.3">
<g opacity="0.3">
<path opacity="0.3" d="M437.909 193.265L346.191 272.715L208.139 267.356V269.563L346.821 274.607L438.54 194.526L437.909 193.265Z" fill="#069EFF"/>
</g>
<g opacity="0.3">
<path opacity="0.3" d="M208.455 272.4C206.563 272.4 204.988 270.509 204.988 268.302C204.988 266.095 206.563 264.518 208.455 264.518C210.346 264.518 211.922 266.41 211.922 268.617C211.922 270.824 210.346 272.4 208.455 272.4Z" fill="#069EFF"/>
</g>
</g>
</g>
<path d="M654.442 379.595C625.129 382.432 593.296 384.639 559.886 386.846V388.423C593.296 386.531 624.814 384.009 654.442 381.171V379.595Z" fill="#069EFF"/>
<path d="M654.442 382.747C655.387 382.747 656.017 381.486 656.017 380.225C656.017 378.964 655.387 377.703 654.442 377.703C653.496 377.703 652.866 378.964 652.866 380.225C652.866 381.801 653.496 383.063 654.442 382.747Z" fill="#069EFF"/>
<path d="M560.201 390.314C559.256 390.314 558.31 389.053 558.31 387.792C558.31 386.215 559.256 384.954 560.201 384.954C561.147 384.954 562.092 386.215 562.092 387.477C561.777 389.053 561.147 390.314 560.201 390.314Z" fill="#069EFF"/>
<path d="M655.703 384.324C653.811 388.423 651.29 392.206 649.084 395.989C646.562 400.088 644.041 404.186 642.15 408.6C618.511 413.33 592.981 415.536 566.505 418.059C538.454 420.581 507.881 423.734 476.047 429.409H475.732L475.417 429.724C472.58 434.768 469.113 439.498 465.646 443.911C462.179 448.325 458.712 453.055 455.56 458.414C431.291 464.72 405.13 467.557 378.34 470.71C362.265 472.602 344.93 474.493 327.91 477.016V478.907C345.245 476.07 362.265 474.178 378.34 472.602C405.13 469.764 431.606 466.611 455.875 460.306H456.19L456.505 459.991C459.342 454.631 463.124 449.902 466.591 445.488C470.058 441.074 473.525 436.66 476.362 431.3C508.196 425.31 538.769 422.473 566.505 419.635C592.981 417.113 618.511 414.591 642.15 409.861H642.465V409.546C644.671 405.132 647.193 401.034 649.714 396.935C651.92 393.152 654.442 389.368 656.333 385.27L655.703 384.324Z" fill="#069EFF"/>
<path d="M328.225 481.43C326.649 481.745 325.388 480.168 325.388 478.277C325.388 476.385 326.649 474.493 328.225 474.493C329.801 474.178 331.062 475.755 331.062 477.646C331.062 479.538 329.801 481.43 328.225 481.43Z" fill="#069EFF"/>
<path d="M389.371 468.818L352.494 518.948L177.251 549.845V551.736L352.809 520.524L390.316 470.079L389.371 468.818Z" fill="#069EFF"/>
<path d="M177.251 554.574C175.36 554.889 173.784 553.313 173.784 551.106C173.784 548.899 175.36 547.007 177.251 546.377C179.142 546.061 180.718 547.638 180.718 549.845C181.034 552.367 179.458 554.258 177.251 554.574Z" fill="#069EFF"/>
<path d="M654.442 156.378C655.387 156.378 656.018 155.432 656.018 154.171C656.018 152.91 655.387 151.649 654.442 151.334C653.496 151.018 652.866 152.28 652.866 153.541C652.866 155.117 653.496 156.378 654.442 156.378Z" fill="#069EFF"/>
<path d="M393.784 237.404C382.437 236.459 370.775 235.828 359.113 235.513C348.712 234.882 337.365 234.252 326.334 233.621V235.513C337.365 236.143 348.397 236.774 359.113 237.404C381.807 238.666 404.5 239.611 425.617 242.449C425.933 242.449 426.248 243.395 426.563 244.341C426.878 245.286 427.193 246.547 427.824 247.493C436.018 257.267 443.583 267.671 450.832 277.445C458.081 287.218 465.331 296.992 472.895 306.135C474.156 308.027 476.677 309.603 477.938 309.603C495.588 309.603 513.239 310.234 529.313 310.549C567.766 311.495 604.643 312.125 638.052 309.288H638.367V308.973C642.15 301.721 646.562 295.416 650.66 289.11C652.236 286.588 654.127 284.066 655.703 281.543L655.072 280.597C653.496 283.12 651.605 285.642 650.029 288.164C645.617 294.47 641.519 300.46 637.737 307.711C604.327 310.549 567.766 309.603 529.313 308.657C512.924 308.342 495.588 308.027 477.938 307.711C476.993 307.711 474.786 306.135 473.841 304.559C466.276 295.416 459.027 285.642 451.778 275.868C444.528 266.095 436.964 255.691 428.769 245.917C428.454 245.286 428.139 244.341 427.824 243.395C427.508 242.134 426.878 240.557 425.932 240.242C415.216 238.981 404.5 238.035 393.784 237.404Z" fill="#069EFF"/>
<path d="M656.018 282.804C656.648 281.858 656.648 280.282 656.018 279.336C655.387 278.39 654.442 278.075 653.811 279.021C653.181 279.967 653.181 281.543 653.811 282.489C654.442 283.435 655.387 283.75 656.018 282.804Z" fill="#069EFF"/>
<path d="M326.334 237.72C324.758 237.72 323.497 236.143 323.497 233.936C323.497 232.045 324.758 230.468 326.334 230.468C327.91 230.468 329.171 232.36 329.171 234.252C329.171 236.459 327.91 237.72 326.334 237.72Z" fill="#069EFF"/>
<path d="M453.669 232.676L453.038 233.937L463.439 248.124L498.425 250.647L525.216 288.48L647.508 291.948V290.687L525.846 286.904L499.055 249.07L463.755 246.548L453.669 232.676Z" fill="#069EFF"/>
<path d="M451.778 235.513C450.832 234.252 450.832 232.36 451.778 231.099C452.723 229.838 453.984 229.838 454.929 231.099C455.875 232.36 455.875 234.252 454.929 235.513C454.299 236.774 452.723 236.774 451.778 235.513Z" fill="#069EFF"/>
<path d="M484.872 198.625L437.91 192.95L419.314 214.705L377.394 210.606V212.498L419.944 216.281L438.54 194.842L484.242 200.202L505.359 230.784L536.247 233.306L546.648 219.749L644.671 229.523V228.262L546.333 218.173L535.932 231.73L505.99 229.207L484.872 198.625Z" fill="#069EFF"/>
<path d="M377.394 215.02C375.818 215.02 374.873 213.128 374.873 211.552C374.873 209.66 376.133 208.399 377.394 208.399C378.97 208.399 379.916 210.291 379.916 211.867C379.916 213.443 378.97 215.02 377.394 215.02Z" fill="#069EFF"/>
<path d="M583.525 250.015C581.949 251.592 580.688 253.799 579.743 255.69C577.852 259.474 575.645 263.257 572.178 263.888C566.19 264.518 559.886 263.888 553.582 262.942C551.376 262.626 549.17 262.311 546.963 262.311V263.888C549.17 264.203 551.376 264.203 553.582 264.518C559.886 265.149 566.505 266.095 572.178 265.149C575.96 264.203 578.167 260.42 580.058 256.636C581.003 254.745 582.264 252.853 583.21 251.276C607.794 252.853 631.748 254.745 654.126 256.321V255.06C632.379 253.483 608.109 251.592 583.525 250.015Z" fill="#069EFF"/>
<path d="M654.442 258.528C655.387 258.528 656.018 257.582 656.018 256.006C656.018 254.745 655.387 253.484 654.442 253.484C653.496 253.484 652.866 254.429 652.866 256.006C652.866 257.267 653.496 258.528 654.442 258.528Z" fill="#069EFF"/>
<path d="M546.964 266.095C546.018 266.095 545.073 264.518 545.073 262.942C545.073 261.366 546.018 260.104 546.964 260.42C547.909 260.42 548.855 261.996 548.855 263.573C548.855 264.834 548.224 266.095 546.964 266.095Z" fill="#069EFF"/>
<path d="M607.479 331.357C590.459 331.673 573.124 331.988 555.158 332.618V334.195C590.459 333.249 623.869 332.618 654.757 332.303V331.042C639.313 330.727 623.553 331.042 607.479 331.357Z" fill="#069EFF"/>
<path d="M654.442 333.879C655.387 333.879 656.018 332.618 656.018 331.357C656.018 330.096 655.387 328.835 654.442 328.835C653.496 328.835 652.866 330.096 652.866 331.357C653.181 332.933 653.811 333.879 654.442 333.879Z" fill="#069EFF"/>
<path d="M555.158 336.086C554.213 336.086 553.267 334.825 553.267 333.249C553.267 331.672 554.213 330.411 555.158 330.411C556.104 330.411 557.05 331.672 557.05 333.249C557.05 334.825 556.104 336.086 555.158 336.086Z" fill="#069EFF"/>
<path d="M409.543 311.495C398.196 311.495 386.535 311.81 374.873 312.125C360.059 312.44 344.3 313.071 328.856 312.756V314.647C344.3 314.963 360.059 314.332 374.873 314.017C400.403 313.386 425.618 312.44 448.941 315.593C452.093 320.007 455.245 324.106 458.712 328.52C465.331 337.347 472.265 346.49 478.254 355.949C480.775 359.417 484.242 360.678 486.764 360.678C549.17 357.84 606.219 355.318 656.333 352.796V351.535C606.219 354.057 549.17 356.264 486.764 359.102C484.557 359.102 481.405 357.84 479.199 354.688C472.895 344.914 466.276 336.086 459.342 327.259C455.875 322.845 452.724 318.431 449.572 314.017V313.702H449.256C436.334 312.125 423.096 311.495 409.543 311.495Z" fill="#069EFF"/>
<path d="M328.856 316.854C327.28 316.854 326.019 315.278 326.019 313.386C326.019 311.495 327.28 309.918 328.856 309.918C330.432 309.918 331.692 311.495 331.692 313.386C331.692 315.278 330.432 316.854 328.856 316.854Z" fill="#069EFF"/>
<path d="M376.764 368.875L277.795 373.289V375.496L376.133 370.452L405.13 403.871L521.749 394.413L542.866 422.157L543.812 420.896L522.379 392.837L405.445 401.98L376.764 368.875Z" fill="#069EFF"/>
<path d="M277.795 378.019C276.219 378.019 274.644 376.442 274.644 374.551C274.644 372.659 275.904 370.767 277.795 370.767C279.371 370.767 280.947 372.344 280.947 374.235C280.947 376.127 279.687 378.019 277.795 378.019Z" fill="#069EFF"/>
<path d="M370.144 419.32L297.021 425.941V427.832L369.514 420.896L395.99 450.217L469.428 441.389V439.813L396.62 448.641L370.144 419.32Z" fill="#069EFF"/>
<path d="M297.337 430.354C295.761 430.354 294.185 429.093 294.185 426.886C294.185 424.995 295.446 423.103 297.337 423.103C298.913 423.103 300.173 424.364 300.173 426.571C300.173 428.463 298.913 430.354 297.337 430.354Z" fill="#069EFF"/>
<path d="M390.947 269.878L335.474 267.356V269.248L390.317 271.455L424.041 314.017L424.987 312.756L390.947 269.878Z" fill="#069EFF"/>
<path d="M335.474 271.77C333.898 271.77 332.638 270.193 332.638 268.302C332.638 266.41 333.898 264.834 335.474 264.834C337.05 264.834 338.311 266.41 338.311 268.302C338.311 270.509 337.05 272.085 335.474 271.77Z" fill="#069EFF"/>
<path d="M654.442 181.285C655.387 181.285 656.018 180.339 656.018 179.078C656.018 177.817 655.387 176.556 654.442 176.24C653.496 176.24 652.866 177.186 652.866 178.447C652.866 179.709 653.496 180.97 654.442 181.285Z" fill="#069EFF"/>
<path d="M656.018 214.39C649.084 214.074 643.41 213.128 636.792 212.183V213.444C643.41 214.39 649.399 215.335 656.018 215.651V214.39Z" fill="#069EFF"/>
<path d="M636.791 210.291C635.846 210.291 635.216 211.237 635.216 212.498C635.216 214.074 635.846 215.335 636.791 215.335C637.737 215.335 638.367 214.389 638.367 213.128C638.367 211.552 637.422 210.291 636.791 210.291Z" fill="#069EFF"/>
<path d="M426.878 337.348L361.95 338.609V340.5L426.248 338.924L473.841 397.881L474.786 396.62L426.878 337.348Z" fill="#069EFF"/>
<path d="M361.95 342.707C360.374 342.707 359.113 341.131 359.113 339.239C359.113 337.348 360.374 335.771 361.95 335.771C363.526 335.771 364.471 337.348 364.471 339.239C364.787 341.131 363.526 342.707 361.95 342.707Z" fill="#069EFF"/>
</g>
</g>
<defs>
<linearGradient id="paint0_linear_57_2" x1="795.923" y1="318.393" x2="1171.87" y2="318.393" gradientUnits="userSpaceOnUse">
<stop/>
<stop offset="1" stop-color="white"/>
</linearGradient>
<linearGradient id="paint1_linear_57_2" x1="644.077" y1="338.313" x2="268.133" y2="338.313" gradientUnits="userSpaceOnUse">
<stop/>
<stop offset="1" stop-color="white"/>
</linearGradient>
<clipPath id="clip0_57_2">
<rect width="1702" height="681" fill="white" transform="translate(-131)"/>
</clipPath>
</defs>
</svg>
