<svg width="162" height="48" viewBox="0 0 162 48" fill="none" xmlns="http://www.w3.org/2000/svg">
<path d="M44.9279 18.3307V18.8955H43.2327V18.2004C43.2327 16.2889 42.6785 15.1594 41.4071 15.1594C40.1357 15.1594 39.5815 16.2889 39.5815 18.1569C39.5815 22.9356 44.9604 23.37 44.9604 29.365C44.9604 32.5798 43.7869 34.7085 41.3419 34.7085C38.8969 34.7085 37.7559 32.6232 37.7559 29.365V28.1487H39.4185V29.5388C39.4185 31.4503 40.0053 32.5798 41.2767 32.5798C42.5481 32.5798 43.1349 31.4503 43.1349 29.5388C43.1349 24.8036 37.7885 24.3257 37.7885 18.3307C37.7885 15.0291 38.9295 12.9873 41.3419 12.9873C43.7869 13.0307 44.9279 15.116 44.9279 18.3307Z" fill="#E2E4E9"/>
<path d="M48.1875 18.3746C48.1875 15.1165 49.3937 13.0312 51.8387 13.0312C54.3163 13.0312 55.5225 15.1165 55.5225 18.3746V29.3655C55.5225 32.5803 54.3163 34.7089 51.8387 34.7089C49.3937 34.7089 48.1875 32.5803 48.1875 29.3655V18.3746ZM49.9479 29.4959C49.9479 31.4508 50.5673 32.5803 51.8387 32.5803C53.1427 32.5803 53.7295 31.4508 53.7295 29.4959V18.2443C53.7295 16.3329 53.1427 15.1599 51.8387 15.1599C50.5673 15.1599 49.9479 16.3329 49.9479 18.2443V29.4959Z" fill="#E2E4E9"/>
<path d="M59.043 34.4908V13.2041H60.836V32.3187H65.4V34.4908H59.043Z" fill="#E2E4E9"/>
<path d="M70.3558 30.233L69.7364 34.5338H68.1064L71.1708 13.2471H73.7462L76.8106 34.5338H75.0176L74.3982 30.233H70.3558ZM70.584 28.1912H74.1374L72.3444 15.897L70.584 28.1912Z" fill="#E2E4E9"/>
<path d="M83.5919 13.2041C86.0695 13.2041 87.0475 14.768 87.0475 17.9393V18.9385C87.0475 21.1975 86.5584 22.5876 85.1893 23.1524C86.754 23.7171 87.3409 25.3679 87.3409 27.7138V29.5384C87.3409 32.7531 86.1673 34.5343 83.6897 34.5343H80.0059V13.2475H83.5919V13.2041ZM83.1681 22.2401C84.5699 22.2401 85.3197 21.6319 85.3197 19.4163V18.1565C85.3197 16.2885 84.8307 15.3762 83.5593 15.3762H81.7989V22.2401H83.1681ZM83.6897 32.3621C84.9937 32.3621 85.5805 31.4499 85.5805 29.4515V27.5835C85.5805 25.1942 84.8633 24.4122 83.3311 24.4122H81.7663V32.3621H83.6897Z" fill="#E2E4E9"/>
<path d="M101.586 23.1519V25.324H97.9024V34.5338H96.1094V13.2471H102.466V15.4192H97.9024V23.1953H101.586V23.1519Z" fill="#E2E4E9"/>
<path d="M107.52 13.2041V34.4908H105.727V13.2041H107.52Z" fill="#E2E4E9"/>
<path d="M112.736 34.4908H111.139V13.2041H113.388L117.072 28.5827V13.2041H118.637V34.4908H116.778L112.703 17.2877V34.4908H112.736Z" fill="#E2E4E9"/>
<path d="M124.113 30.233L123.493 34.5338H121.863L124.928 13.2471H127.503L130.567 34.5338H128.774L128.155 30.233H124.113ZM124.341 28.1912H127.894L126.101 15.897L124.341 28.1912Z" fill="#E2E4E9"/>
<path d="M135.361 34.4908H133.764V13.2041H136.013L139.697 28.5827V13.2041H141.262V34.4908H139.403L135.328 17.2877V34.4908H135.361Z" fill="#E2E4E9"/>
<path d="M151.986 18.3746V20.2861H150.291V18.2443C150.291 16.3329 149.704 15.1599 148.432 15.1599C147.161 15.1599 146.574 16.3329 146.574 18.2443V29.4959C146.574 31.4073 147.161 32.5803 148.432 32.5803C149.736 32.5803 150.291 31.4073 150.291 29.4959V26.7156H151.986V29.3655C151.986 32.5803 150.845 34.7089 148.367 34.7089C145.922 34.7089 144.781 32.5803 144.781 29.3655V18.3746C144.781 15.1599 145.922 13.0312 148.367 13.0312C150.845 13.0312 151.986 15.1599 151.986 18.3746Z" fill="#E2E4E9"/>
<path d="M161.114 22.6311V24.7597H157.202V32.3187H161.994V34.4908H155.409V13.2041H161.994V15.3762H157.202V22.6311H161.114Z" fill="#E2E4E9"/>
<path d="M6.87224 0L0 12.0455L22.8831 48L29.7554 35.9545L6.87224 0Z" fill="url(#paint0_linear_761_958)"/>
<path d="M20.3241 14.9204L29.7551 0H10.8564L20.3241 14.9204Z" fill="url(#paint1_linear_761_958)"/>
<path d="M9.43106 33.0795L18.8621 47.9999H0L9.43106 33.0795Z" fill="url(#paint2_linear_761_958)"/>
<defs>
<linearGradient id="paint0_linear_761_958" x1="14.8752" y1="-0.302484" x2="14.8752" y2="46.8529" gradientUnits="userSpaceOnUse">
<stop stop-color="#1EE8BB"/>
<stop offset="0.2136" stop-color="#18B1DC"/>
<stop offset="0.2634" stop-color="#21A8DF"/>
<stop offset="0.4267" stop-color="#388EE7"/>
<stop offset="0.5251" stop-color="#4185EA"/>
<stop offset="0.5297" stop-color="#4284E9"/>
<stop offset="0.7059" stop-color="#795DD1"/>
<stop offset="0.7915" stop-color="#8E4EC7"/>
<stop offset="0.8385" stop-color="#A34EC8"/>
<stop offset="0.9348" stop-color="#D84FCC"/>
<stop offset="1" stop-color="#FF50CE"/>
</linearGradient>
<linearGradient id="paint1_linear_761_958" x1="20.3161" y1="-0.302484" x2="20.3161" y2="46.8529" gradientUnits="userSpaceOnUse">
<stop stop-color="#1EE8BB"/>
<stop offset="0.2136" stop-color="#18B1DC"/>
<stop offset="0.2634" stop-color="#21A8DF"/>
<stop offset="0.4267" stop-color="#388EE7"/>
<stop offset="0.5251" stop-color="#4185EA"/>
<stop offset="0.5297" stop-color="#4284E9"/>
<stop offset="0.7059" stop-color="#795DD1"/>
<stop offset="0.7915" stop-color="#8E4EC7"/>
<stop offset="0.8385" stop-color="#A34EC8"/>
<stop offset="0.9348" stop-color="#D84FCC"/>
<stop offset="1" stop-color="#FF50CE"/>
</linearGradient>
<linearGradient id="paint2_linear_761_958" x1="9.43406" y1="-0.302557" x2="9.43406" y2="46.8529" gradientUnits="userSpaceOnUse">
<stop stop-color="#1EE8BB"/>
<stop offset="0.2136" stop-color="#18B1DC"/>
<stop offset="0.2634" stop-color="#21A8DF"/>
<stop offset="0.4267" stop-color="#388EE7"/>
<stop offset="0.5251" stop-color="#4185EA"/>
<stop offset="0.5297" stop-color="#4284E9"/>
<stop offset="0.7059" stop-color="#795DD1"/>
<stop offset="0.7915" stop-color="#8E4EC7"/>
<stop offset="0.8385" stop-color="#A34EC8"/>
<stop offset="0.9348" stop-color="#D84FCC"/>
<stop offset="1" stop-color="#FF50CE"/>
</linearGradient>
</defs>
</svg>
